
<svg width="224" height="206" viewBox="0 0 224 206" fill="none" xmlns="http://www.w3.org/2000/svg">
<g clip-path="url(#clip0_2747_3675)">
<path d="M54.5991 56.3094L297.401 56.3094C302.235 56.3094 305.677 57.4231 307.913 59.5619C310.143 61.6948 311.3 64.9686 311.3 69.5732L311.3 215.476C311.3 220.081 310.143 223.354 307.913 225.487C305.677 227.626 302.235 228.74 297.401 228.74L54.5991 228.74C49.7648 228.74 46.3235 227.626 44.0874 225.487C41.8574 223.354 40.7 220.081 40.7 215.476L40.7 69.5732C40.7 64.9686 41.8574 61.6948 44.0874 59.5619C46.3235 57.4231 49.7648 56.3094 54.5991 56.3094Z" fill="#EBC7B5" stroke="#1B1B1B" stroke-width="1.4"/>
<path d="M70.6387 76.5291L285.487 76.5291C289.197 76.5291 291.556 77.1331 293 78.3967C294.419 79.6376 295.113 81.6599 295.113 84.9286L295.113 203.908C295.113 207.177 294.419 209.199 293 210.44C291.556 211.704 289.197 212.308 285.487 212.308L70.6387 212.308C66.929 212.308 64.5695 211.704 63.1251 210.44C61.7067 209.199 61.0125 207.177 61.0125 203.908L61.0125 84.9286C61.0125 81.6599 61.7067 79.6376 63.1251 78.3967C64.5695 77.1331 66.929 76.5291 70.6387 76.5291Z" fill="#F8EFE5" stroke="#1B1B1B" stroke-width="1.4"/>
<rect x="186" y="74" width="44" height="3.23047" fill="#EBC7B5"/>
<rect x="81" y="55" width="17" height="2.01562" fill="#F8EFE5"/>
<rect x="41.4062" y="103" width="17" height="1.40653" transform="rotate(90 41.4062 103)" fill="#F8EFE5"/>
<rect x="59" y="187" width="20" height="2.74666" transform="rotate(-90 59 187)" fill="#EBC7B5"/>
<path d="M188.093 100.566L138.907 100.566C134.54 100.566 131 104.177 131 108.632L131 183.412C131 187.867 134.54 191.478 138.907 191.478L188.093 191.478C192.46 191.478 196 187.867 196 183.412L196 108.632C196 104.177 192.46 100.566 188.093 100.566Z" fill="#9B5C8F"/>
<path d="M107.553 100.566L89.4475 100.566C87.5435 100.566 86 102.047 86 103.873L86 121.237C86 123.063 87.5435 124.543 89.4475 124.543L107.553 124.543C109.457 124.543 111 123.063 111 121.237L111 103.873C111 102.047 109.457 100.566 107.553 100.566Z" fill="#0F86A1"/>
<path d="M106.886 133.534L90.1144 133.534C87.8421 133.534 86 135.374 86 137.645L86 154.399C86 156.67 87.8421 158.51 90.1144 158.51L106.886 158.51C109.158 158.51 111 156.67 111 154.399L111 137.645C111 135.374 109.158 133.534 106.886 133.534Z" fill="#F7D3C1"/>
<path d="M106.837 167.5L90.1626 167.5C87.8637 167.5 86 169.287 86 171.492L86 187.484C86 189.689 87.8637 191.477 90.1626 191.477L106.837 191.477C109.136 191.477 111 189.689 111 187.484L111 171.492C111 169.287 109.136 167.5 106.837 167.5Z" fill="#9B5C8F"/>
<path d="M265.559 102.966L217.441 102.966C217.059 102.966 216.693 102.893 216.422 102.761C216.152 102.63 216 102.452 216 102.266C216 102.081 216.152 101.903 216.422 101.771C216.693 101.64 217.059 101.566 217.441 101.566L265.559 101.566C265.941 101.566 266.307 101.64 266.578 101.771C266.848 101.903 267 102.081 267 102.266C267 102.452 266.848 102.63 266.578 102.761C266.307 102.893 265.941 102.966 265.559 102.966Z" fill="#1B1B1B"/>
<path d="M265.559 118.951L217.441 118.951C217.059 118.951 216.693 118.877 216.422 118.746C216.152 118.614 216 118.436 216 118.251C216 118.065 216.152 117.887 216.422 117.756C216.693 117.625 217.059 117.551 217.441 117.551L265.559 117.551C265.941 117.551 266.307 117.625 266.578 117.756C266.848 117.887 267 118.065 267 118.251C267 118.436 266.848 118.614 266.578 118.746C266.307 118.877 265.941 118.951 265.559 118.951Z" fill="#1B1B1B"/>
<path d="M252.48 134.935L217.52 134.935C217.117 134.935 216.73 134.861 216.445 134.73C216.16 134.599 216 134.421 216 134.235C216 134.05 216.16 133.871 216.445 133.74C216.73 133.609 217.117 133.535 217.52 133.535L252.48 133.535C252.883 133.535 253.27 133.609 253.555 133.74C253.84 133.871 254 134.05 254 134.235C254 134.421 253.84 134.599 253.555 134.73C253.27 134.861 252.883 134.935 252.48 134.935Z" fill="#1B1B1B"/>
<path d="M246.602 149.52L223.398 149.52C219.312 149.52 216 152.874 216 157.012C216 161.15 219.312 164.505 223.398 164.505L246.602 164.505C250.688 164.505 254 161.15 254 157.012C254 152.874 250.688 149.52 246.602 149.52Z" fill="#0F86A1"/>
</g>
<defs>
<clipPath id="clip0_2747_3675">
<rect width="224" height="206" fill="white"/>
</clipPath>
</defs>
</svg>