<svg width="216" height="222" viewBox="0 0 216 222" fill="none" xmlns="http://www.w3.org/2000/svg">
<g clip-path="url(#clip0_2748_3679)">
<path d="M145.289 159.185L145.364 159.122L145.416 159.039L195.31 79.7759C205.773 87.1282 214.604 96.5684 221.244 107.503C227.999 118.628 232.336 131.05 233.971 143.96C235.606 156.869 234.503 169.976 230.733 182.427C226.964 194.877 220.613 206.391 212.094 216.218C203.575 226.045 193.08 233.964 181.293 239.459C169.506 244.954 156.691 247.902 143.684 248.11C130.678 248.319 117.771 245.783 105.806 240.668C94.0452 235.64 83.4535 228.232 74.697 218.912L145.289 159.185Z" fill="#0F86A1" stroke="#3C8AAC" stroke-width="1.27325"/>
<path d="M143.695 248.747C130.599 248.957 117.604 246.403 105.556 241.253C93.5089 236.103 82.68 228.472 73.7756 218.857L144.877 158.699L195.127 78.8721C205.902 86.3288 214.986 95.9721 221.788 107.173C228.59 118.374 232.956 130.882 234.603 143.88C234.778 145.267 234.922 146.656 235.035 148.047M181.562 240.036C193.43 234.503 203.998 226.53 212.575 216.635C221.152 206.741 227.547 195.148 231.343 182.612C231.531 181.988 231.714 181.363 231.889 180.736" stroke="#1B1B1B" stroke-width="1.69056"/>
<path d="M49.4419 145.689C47.0363 168.524 53.141 191.449 66.586 210.072L132.099 158.101L49.4419 145.689Z" fill="#9B5C8F"/>
<path d="M80.829 150.402L49.4419 145.689C48.6474 153.231 48.7812 160.783 49.8013 168.186M101.599 153.521L132.099 158.101L90.566 191.049M78.576 200.561L66.586 210.072C60.4497 201.573 55.8424 192.177 52.8753 182.303" stroke="#1B1B1B" stroke-width="1.69057"/>
<path d="M186.73 73.9732C174.028 66.9838 159.867 63.0654 145.384 62.5321C130.9 61.9987 116.495 64.8651 103.323 70.9017C90.151 76.9383 78.5775 85.9774 69.5295 97.295C60.4816 108.613 54.2106 121.894 51.2188 136.076L139.723 149.364L186.73 73.9732Z" fill="#F8EFE5"/>
<path d="M145.384 62.5321C159.867 63.0654 174.028 66.9837 186.73 73.9732L139.723 149.364C126.349 147.356 115.248 145.69 104.662 144.1M69.5295 97.295C78.5775 85.9774 90.151 76.9383 103.323 70.9017C110.131 67.7817 117.268 65.5086 124.575 64.114M58.1376 115.538C55.0477 122.068 52.7203 128.959 51.2188 136.076C60.1897 137.423 68.1377 138.616 75.5938 139.736" stroke="#1B1B1B" stroke-width="1.69057"/>
<path d="M166.917 153.29C167.6 154.876 171.729 154.932 171.729 154.932L210.961 153.926C210.961 153.926 215.269 153.296 216.693 152.488C217.938 151.782 218.264 148.126 218.264 148.126C218.264 148.126 218.765 134.063 214.426 124.557C210.566 116.097 200.454 107.286 200.454 107.286C200.454 107.286 198.025 105.082 195.642 105.643C194.156 105.994 191.823 109.668 191.823 109.668L167.521 149.242C167.521 149.242 166.234 151.706 166.917 153.29Z" fill="#EBC7B5"/>
<path d="M171.736 154.928L210.968 153.922C210.968 153.922 215.276 153.291 216.7 152.484C217.945 151.778 218.271 148.121 218.271 148.121M167.528 149.238L191.83 109.664C191.83 109.664 194.163 105.99 195.649 105.639C198.032 105.077 200.461 107.282 200.461 107.282C200.461 107.282 210.572 116.093 214.433 124.553" stroke="#1B1B1B" stroke-width="1.69057"/>
</g>
<defs>
<clipPath id="clip0_2748_3679">
<rect width="216" height="222" fill="white"/>
</clipPath>
</defs>
</svg>