<svg width="35" height="33" viewBox="0 0 35 33" fill="none" xmlns="http://www.w3.org/2000/svg">
<g filter="url(#filter0_f_310_4123)">
<path d="M23.3077 15.7259L17.1024 22.5002L10.897 15.7259C9.6585 14.3738 9.70835 12.2947 11.0103 11.0027C12.4639 9.55999 14.8585 9.69161 16.1427 11.2848L17.1024 12.4753L18.062 11.2848C19.3463 9.69161 21.7408 9.55999 23.1945 11.0027C24.4964 12.2947 24.5462 14.3738 23.3077 15.7259Z" fill="#FFE336" fill-opacity="0.5"/>
</g>
<path d="M23.3077 15.7259L17.1024 22.5002L10.897 15.7259C9.6585 14.3738 9.70835 12.2947 11.0103 11.0027C12.4639 9.55999 14.8585 9.69161 16.1427 11.2848L17.1024 12.4753L18.062 11.2848C19.3463 9.69161 21.7408 9.55999 23.1945 11.0027C24.4964 12.2947 24.5462 14.3738 23.3077 15.7259Z" fill="#FFE336"/>
<defs>
<filter id="filter0_f_310_4123" x="0" y="0" width="34.2051" height="32.5" filterUnits="userSpaceOnUse" color-interpolation-filters="sRGB">
<feFlood flood-opacity="0" result="BackgroundImageFix"/>
<feBlend mode="normal" in="SourceGraphic" in2="BackgroundImageFix" result="shape"/>
<feGaussianBlur stdDeviation="5" result="effect1_foregroundBlur_310_4123"/>
</filter>
</defs>
</svg>
