<svg width="214" height="43" viewBox="0 0 214 43" fill="none" xmlns="http://www.w3.org/2000/svg">
<path d="M63.5823 18.9329C63.1675 20.8821 62.4268 22.3292 61.3306 23.3038C60.4714 24.0717 59.6714 24.3965 58.9307 24.2489C58.2196 24.1012 57.6271 23.481 57.1826 22.3292C56.8271 21.4137 56.6493 20.4982 56.6493 19.6417C56.6493 18.9034 56.7086 18.1651 56.8567 17.4858C57.1234 16.275 57.6271 15.0937 58.427 13.9714C59.4048 12.5243 60.4417 11.9336 61.5083 12.1404C62.2194 12.288 62.812 12.9082 63.2564 14.06C63.6119 14.9755 63.7897 15.8911 63.7897 16.7475C63.7897 17.5154 63.7008 18.2537 63.5823 18.9329Z" fill="#EEE3D7"/>
<path d="M42.7557 23.3038C43.8519 22.3292 44.5926 20.8821 45.0074 18.9329C45.1556 18.2537 45.2148 17.5154 45.2148 16.7475C45.2148 15.8911 45.0371 14.9755 44.6815 14.06C44.2371 12.9082 43.6445 12.288 42.9335 12.1404C41.8669 11.9336 40.8299 12.5243 39.8521 13.9714C39.0522 15.0937 38.5485 16.275 38.2819 17.4858C38.1337 18.1651 38.0745 18.9034 38.0745 19.6417C38.0745 20.4982 38.2522 21.4137 38.6078 22.3292C39.0522 23.481 39.6447 24.1012 40.3558 24.2489C41.0965 24.3965 41.8965 24.0717 42.7557 23.3038Z" fill="#EEE3D7"/>
<path fill-rule="evenodd" clip-rule="evenodd" d="M65.7153 0H6.72579C2.99265 0 -0.0294121 3.04189 0.000216007 6.73351V29.1786C0.000216007 32.8997 3.02228 35.9121 6.75542 35.9121H34.6947L47.4644 43L44.5609 35.9121H65.7153C69.4485 35.9121 72.4706 32.8997 72.4706 29.1786V6.73351C72.4706 3.01236 69.4485 0 65.7153 0ZM5.48371 5.19893C4.65413 5.258 4.03194 5.55333 3.61714 6.11446C3.20235 6.64605 3.05421 7.32531 3.1431 8.09317C4.89115 19.168 6.5207 26.6399 8.03173 30.5087C8.6243 31.9263 9.30574 32.6055 10.1057 32.5464C11.3501 32.4578 12.8315 30.7449 14.5795 27.4077C15.498 25.5176 16.9202 22.6824 18.846 18.9022C20.4459 24.484 22.6384 28.6776 25.3938 31.4833C26.1641 32.2807 26.9641 32.635 27.7344 32.576C28.4159 32.5169 28.9492 32.1625 29.3047 31.5128C29.601 30.9517 29.7195 30.3019 29.6603 29.5636C29.4825 26.8761 29.7491 23.1254 30.4898 18.3116C31.2602 13.35 32.2083 9.77655 33.3638 7.65017C33.6008 7.20718 33.6897 6.76418 33.66 6.23259C33.6008 5.55333 33.3045 4.99221 32.7416 4.54921C32.1786 4.10622 31.5564 3.89949 30.875 3.95856C30.0158 4.01762 29.364 4.43108 28.9195 5.258C27.0826 8.59523 25.779 13.9998 25.0086 21.5011C23.8828 18.666 22.9347 15.3287 22.194 11.4009C21.8681 9.65841 21.0681 8.83149 19.7645 8.92009C18.8756 8.97915 18.1349 9.56981 17.5424 10.6921L11.0538 23.0073C9.98719 18.725 8.97983 13.4977 8.06136 7.32531C7.85396 5.7896 6.99475 5.0808 5.48371 5.19893ZM67.3155 10.7523C66.2488 8.89174 64.6786 7.76949 62.575 7.32649C62.012 7.20836 61.4787 7.14929 60.975 7.14929C58.1307 7.14929 55.8197 8.62594 54.0124 11.5792C52.4718 14.0895 51.7014 16.8656 51.7014 19.9075C51.7014 22.1816 52.1755 24.1307 53.1236 25.7551C54.1902 27.6156 55.7605 28.7379 57.8641 29.1809C58.427 29.299 58.9603 29.3581 59.464 29.3581C62.3379 29.3581 64.6489 27.8814 66.4266 24.9281C67.9673 22.3883 68.7376 19.6122 68.7376 16.5703C68.7376 14.2667 68.2636 12.3471 67.3155 10.7523ZM44.0001 7.32649C46.074 7.76949 47.674 8.89174 48.7406 10.7523C49.6887 12.3471 50.1627 14.2667 50.1627 16.5703C50.1627 19.6122 49.3924 22.3883 47.8517 24.9281C46.074 27.8814 43.7631 29.3581 40.8891 29.3581C40.3854 29.3581 39.8521 29.299 39.2892 29.1809C37.1856 28.7379 35.6153 27.6156 34.5487 25.7551C33.6006 24.1307 33.1266 22.1816 33.1266 19.9075C33.1266 16.8656 33.8969 14.0895 35.4376 11.5792C37.2449 8.62594 39.5559 7.14929 42.4002 7.14929C42.9038 7.14929 43.4371 7.20836 44.0001 7.32649Z" fill="#EEE3D7"/>
<path d="M80.0218 10.486C78.0367 12.4352 77.0589 14.916 77.0589 17.9283C77.0589 21.1474 78.0367 23.7759 79.9921 25.7546C81.9476 27.7333 84.4956 28.7374 87.6658 28.7374C88.5843 28.7374 89.6213 28.5897 90.7471 28.2649V23.4805C89.7102 23.7759 88.8213 23.9235 88.051 23.9235C86.4807 23.9235 85.2363 23.3919 84.2882 22.3583C83.3401 21.2951 82.8661 19.8775 82.8661 18.076C82.8661 16.3926 83.3401 15.0046 84.2586 13.9414C85.2067 12.8487 86.3622 12.3171 87.7843 12.3171C88.7028 12.3171 89.6805 12.4648 90.7471 12.7601V7.97575C89.7694 7.70995 88.6732 7.59181 87.5177 7.59181C84.4956 7.56228 82.0068 8.53687 80.0218 10.486ZM100.584 7.56228C97.8579 7.56228 95.7247 8.4778 94.184 10.2793C92.6433 12.0808 91.9026 14.6207 91.9026 17.8693C91.9026 21.3837 92.673 24.0712 94.184 25.9318C95.695 27.7924 97.9171 28.7374 100.821 28.7374C103.635 28.7374 105.798 27.7924 107.309 25.9318C108.82 24.0712 109.591 21.4428 109.591 18.076C109.591 14.7093 108.82 12.1104 107.28 10.2793C105.709 8.4778 103.487 7.56228 100.584 7.56228ZM102.924 22.9194C102.391 23.7463 101.591 24.1598 100.584 24.1598C99.6356 24.1598 98.9245 23.7463 98.4208 22.9194C97.9171 22.0925 97.6801 20.4386 97.6801 17.9283C97.6801 14.0595 98.6578 12.1399 100.643 12.1399C102.717 12.1399 103.783 14.0891 103.783 18.017C103.754 20.4387 103.458 22.0925 102.924 22.9194ZM124.227 8.12341L123.16 12.6419C122.894 13.7937 122.627 14.9751 122.39 16.1859L121.797 19.3164C121.234 16.1859 120.464 12.4648 119.486 8.12341H112.613L110.035 28.2353H115.19L116.583 14.3844L120.109 28.2353H123.782L127.16 14.4139L128.612 28.2353H134.004L131.278 8.12341H124.227ZM148.907 8.12341L147.84 12.6419C147.574 13.7937 147.307 14.9751 147.07 16.1859L146.478 19.3164C145.915 16.1859 145.144 12.4648 144.167 8.12341H137.293L134.715 28.2353H139.871L141.263 14.3844L144.789 28.2353H148.463L151.811 14.4139L153.262 28.2353H158.655L155.929 8.12341H148.907ZM165.677 20.291H170.506V16.1268H165.677V12.4352H171.247V8.15294H160.225V28.2649H171.276V23.9826H165.677V20.291ZM186.624 17.1014C187.187 16.1859 187.483 15.2408 187.483 14.2663C187.483 12.3762 186.742 10.87 185.261 9.77725C183.779 8.68453 181.735 8.12341 179.187 8.12341H172.847V28.2353H178.298V19.0801H178.387L182.802 28.2353H188.549L184.194 19.1687C185.231 18.6962 186.061 18.0169 186.624 17.1014ZM178.269 16.7766V11.9922C179.572 12.0218 180.491 12.2285 181.054 12.6419C181.617 13.0554 181.883 13.7051 181.883 14.6502C181.883 16.0382 180.668 16.747 178.269 16.7766ZM190.683 10.486C188.698 12.4352 187.72 14.916 187.72 17.9283C187.72 21.1474 188.698 23.7759 190.653 25.7546C192.609 27.7333 195.157 28.7374 198.327 28.7374C199.245 28.7374 200.282 28.5897 201.408 28.2649V23.4805C200.371 23.7759 199.482 23.9235 198.712 23.9235C197.142 23.9235 195.897 23.3919 194.949 22.3583C194.001 21.2951 193.527 19.8775 193.527 18.076C193.527 16.3926 194.001 15.0046 194.92 13.9414C195.868 12.8487 197.023 12.3171 198.445 12.3171C199.364 12.3171 200.341 12.4648 201.408 12.7601V7.97575C200.43 7.70995 199.334 7.59181 198.179 7.59181C195.186 7.56228 192.668 8.53687 190.683 10.486ZM208.371 20.2614H213.2V16.0973H208.371V12.4057H213.97V8.12341H202.949V28.2353H214V23.9531H208.371V20.2614Z" fill="#EEE3D7"/>
</svg>