<svg width="197" height="33" viewBox="0 0 197 33" fill="none" xmlns="http://www.w3.org/2000/svg">
<path fill-rule="evenodd" clip-rule="evenodd" d="M4.44641 2.17481C5.17126 3.37107 6.14255 5.01224 6.60451 5.82227L7.44485 7.29467L3.7223 10.8452L0 14.3957L6.52045 14.4057L13.0411 14.4159L13.4697 13.3595C13.7054 12.7784 13.9541 12.1635 14.0224 11.9925C14.1182 11.7527 13.331 11.6818 10.5705 11.6818H6.99462L9.2046 9.46923L11.4148 7.25664L10.1532 5.18176L8.89131 3.10687L14.647 3.04001C17.8126 3.00322 20.4583 3.02857 20.5261 3.09643C20.594 3.16403 18.3763 8.56277 15.5978 15.0934C12.8194 21.6243 10.4882 27.1125 10.4176 27.2897C10.3181 27.5398 10.6952 27.5954 12.0988 27.5383L13.9082 27.4647L19.5638 14.1673C22.6745 6.85375 25.2941 0.674314 25.3854 0.434961C25.5418 0.0246064 24.9144 0 14.3399 0H3.12865L4.44641 2.17481ZM103.754 11.652C101.988 12.4511 100.901 14.2364 100.897 16.3421C100.896 17.1186 100.857 17.1499 99.8982 17.1499H98.9005V18.3926V19.6354H99.8982H100.896V26.2219V32.8085H102.393H103.889V26.2339V19.659L105.416 19.5852L106.943 19.5111L107.407 18.3305L107.872 17.1499H105.88H103.889V16.4204C103.889 14.1415 105.335 13.271 108.283 13.7756C109.307 13.9508 109.31 13.9488 109.728 12.9096C109.958 12.337 110.113 11.8429 110.073 11.8121C109.13 11.0823 105.231 10.9836 103.754 11.652ZM25.567 13.0488V14.4159H28.9343H32.3017V23.6241V32.8321L33.8606 32.7583L35.4196 32.6842L35.4849 23.55L35.5505 14.4159H38.9146H42.279V13.0488V11.6818H33.923H25.567V13.0488ZM136.419 12.3653C136.498 12.7414 137.295 16.9076 138.191 21.6238C139.086 26.34 139.936 30.7858 140.08 31.5036L140.342 32.8085H141.792H143.241L145.541 27.154C146.805 24.0439 147.926 21.4078 148.032 21.2955C148.211 21.1048 148.687 22.3391 151.332 29.8542L152.372 32.8085H153.818C155.186 32.8085 155.272 32.772 155.438 32.125C155.534 31.7492 156.696 26.9957 158.019 21.5616L160.425 11.6818H158.893H157.36L155.544 19.6975C154.545 24.106 153.683 27.76 153.627 27.8169C153.461 27.9874 153.433 27.9138 151.512 22.3694L149.66 17.0256H148.299H146.937L144.807 22.4313C143.635 25.4045 142.61 27.8373 142.53 27.8373C142.411 27.8375 141.224 21.5452 139.776 13.2352L139.505 11.6818H137.89H136.276L136.419 12.3653ZM162.257 13.1731V14.6644H163.878H165.499V13.1731V11.6818H163.878H162.257V13.1731ZM55.1249 16.9791L53.8777 17.2886L53.9565 18.2756C53.9999 18.8184 54.1189 19.3476 54.2209 19.4515C54.3229 19.5554 55.0044 19.5275 55.7352 19.3893C58.466 18.8733 60.3742 19.2233 61.6221 20.4688C62.2846 21.1302 62.982 22.9493 62.6859 23.2443C62.6425 23.2876 61.99 23.1566 61.2357 22.9533C58.0505 22.0953 54.17 23.1166 52.8049 25.1718C52.2209 26.0514 52.1316 26.4377 52.1316 28.0873C52.1316 29.7884 52.2055 30.0854 52.8321 30.9039C54.2207 32.718 56.9771 33.459 59.5573 32.7116C60.325 32.4891 61.2856 32.0286 61.6919 31.6878C62.098 31.3473 62.4984 31.0687 62.5814 31.0687C62.6645 31.0687 62.7326 31.4601 62.7326 31.9386V32.8085H64.1045H65.4763V27.1828C65.4763 23.6865 65.3686 21.1988 65.1917 20.6102C64.7934 19.2859 63.6852 18.0385 62.3228 17.3813C60.917 16.703 57.0974 16.4898 55.1249 16.9791ZM74.6119 17.0179C74.0801 17.2068 73.2664 17.727 72.8035 18.1742L71.9616 18.9872V17.9443V16.9014H70.5897H69.2179V24.8549V32.8085H70.5645H71.9112L72.011 27.6511C72.0876 23.6815 72.2006 22.2906 72.5012 21.6121C73.9386 18.3666 78.7627 18.3882 79.7001 21.6444C79.834 22.1097 79.9435 24.8119 79.9435 27.6494V32.8085H81.4401H82.9367V27.2614C82.9367 20.8135 82.7421 19.7778 81.2605 18.3367C79.6432 16.7639 76.874 16.2146 74.6119 17.0179ZM89.1124 16.9901C86.0005 18.1516 84.6975 20.7695 85.8917 23.4601C86.33 24.4471 86.6104 24.7157 87.7283 25.2208C88.4542 25.5486 89.9785 25.9903 91.1159 26.2026C93.5521 26.6569 94.1051 26.9127 94.4164 27.7284C95.3468 30.1664 91.3721 31.358 87.9491 29.6673L86.425 28.9145L85.8032 30.023C85.4615 30.6325 85.1816 31.1793 85.1816 31.2379C85.1816 31.56 88.0845 32.591 89.6841 32.8368C92.7861 33.3136 95.6444 32.2875 96.9394 30.232C97.67 29.0728 97.5059 26.3838 96.6481 25.4547C95.8669 24.6084 94.3875 23.949 92.7893 23.7342C89.7637 23.3278 88.4242 22.6237 88.4242 21.4399C88.4242 19.3043 91.1907 18.4951 94.2313 19.741L95.6733 20.3318L96.2891 19.4288C96.6279 18.9322 96.905 18.4337 96.905 18.3213C96.905 18.2087 96.2769 17.8302 95.5097 17.48C93.7833 16.6926 90.5691 16.4465 89.1124 16.9901ZM112.861 17.0346C111.536 17.4417 109.838 18.8137 108.976 20.1742C108.64 20.7039 108.187 21.8323 107.969 22.6816C106.954 26.6283 108.796 30.8492 112.176 32.3201C114.805 33.4644 118.959 32.8938 121.105 31.0933L121.973 30.3653L121.115 29.4755C120.313 28.6443 120.223 28.6108 119.743 28.9647C117.706 30.4679 115.05 30.7697 113.227 29.7054C110.56 28.1482 109.992 23.207 112.193 20.7101C114.591 17.9885 118.562 18.9951 119.362 22.527L119.551 23.3636H116.864C113.96 23.3636 114.016 23.339 113.3 24.9171L112.877 25.8491H117.773H122.669L122.523 24.0471C122.315 21.4585 121.723 19.9844 120.341 18.6064C118.516 16.7885 115.634 16.1828 112.861 17.0346ZM171.911 17.0535C169.396 17.824 167.918 20.2304 168.492 22.6182C168.984 24.6601 170.279 25.5076 173.974 26.206C177.041 26.7859 177.87 27.5221 177.219 29.088C176.537 30.7299 173.286 30.9789 170.64 29.5915L169.318 28.8988L168.718 30.0024L168.118 31.1057L168.709 31.5859C170.31 32.8865 175.11 33.3426 177.223 32.3947C179.229 31.4947 180.46 29.771 180.464 27.8539C180.465 27.5211 180.233 26.7705 179.949 26.1859C179.307 24.8649 177.71 24.0345 174.978 23.601C171.88 23.1094 170.823 22.2225 171.474 20.6582C172.137 19.0635 175.094 18.6752 177.452 19.8738C178.038 20.1718 178.546 20.38 178.58 20.3363C178.614 20.2926 178.939 19.8141 179.3 19.2728L179.958 18.2888L179.271 17.8553C177.52 16.7507 174.112 16.3794 171.911 17.0535ZM187.165 17.0425C185.493 17.5553 183.694 19.2685 182.823 21.1764C181.935 23.1215 181.82 25.9413 182.543 28.0165C183.149 29.7573 184.843 31.5956 186.507 32.3201C189.136 33.4644 193.29 32.8938 195.437 31.0933L196.304 30.3653L195.446 29.4755C194.644 28.6443 194.554 28.6108 194.074 28.9647C192.037 30.4679 189.381 30.7697 187.558 29.7054C184.891 28.1482 184.324 23.207 186.524 20.7101C188.922 17.9885 192.893 18.9951 193.693 22.527L193.882 23.3636H191.195C188.291 23.3636 188.347 23.339 187.631 24.9171L187.208 25.8491H192.104H197L196.855 24.0471C196.646 21.4585 196.055 19.9844 194.672 18.6064C192.84 16.7816 189.967 16.1828 187.165 17.0425ZM42.279 24.8549V32.8085H43.7756H45.2722V27.6675C45.2722 22.9162 45.3129 22.4428 45.808 21.4235C46.5316 19.9341 47.9803 19.2603 50.0057 19.4713L51.4093 19.6175L51.7161 18.4744C51.885 17.8458 51.9608 17.2697 51.885 17.1941C51.6535 16.9632 48.8371 16.8325 47.8945 17.0087C47.4066 17.0997 46.6304 17.5043 46.1694 17.9077C45.7082 18.3111 45.2617 18.6412 45.1769 18.6412C45.0921 18.6412 45.0228 18.2497 45.0228 17.7713V16.9014H43.6509H42.279V24.8549ZM125.59 24.8549V32.8085H126.937H128.283L128.371 27.6511C128.449 23.0358 128.512 22.3893 128.972 21.4995C129.735 20.0216 131.237 19.3095 133.231 19.4803L134.761 19.6113L135.074 18.4978C135.246 17.8854 135.305 17.3035 135.206 17.2048C135.107 17.1064 134.034 17.0256 132.822 17.0256C130.741 17.0256 130.555 17.0704 129.476 17.8282L128.334 18.631V17.7661V16.9014H126.962H125.59V24.8549ZM162.506 24.8549V32.8085H164.003H165.499V24.8549V16.9014H164.003H162.506V24.8549ZM62.2075 25.5867C62.7204 25.8601 62.77 26.0181 62.6291 26.9291C62.3499 28.7325 60.9072 30.1132 58.9806 30.4202C56.6085 30.7982 55.0001 29.8135 55.0001 27.9832C55.0001 25.7418 56.7302 24.7754 60.1215 25.1226C60.9491 25.2074 61.8877 25.4162 62.2075 25.5867Z" fill="#EEE3D7"/>
</svg>
