<svg width="106" height="28" viewBox="0 0 106 28" fill="none" xmlns="http://www.w3.org/2000/svg">
<path fill-rule="evenodd" clip-rule="evenodd" d="M3.61718 0.295423C3.21431 0.695871 3.34934 -0.0321988 1.44215 12.0154C0.166517 20.0717 -0.136243 22.3747 0.050459 22.5984C0.403276 23.0209 4.72952 23.0068 5.15702 22.5819C5.55828 22.1831 5.59239 22.0456 6.09962 18.7712C6.36746 17.043 6.65589 15.8274 6.84965 15.6114C7.10821 15.3235 7.5127 15.2601 9.10139 15.2587C12.8966 15.2559 15.1366 14.6125 16.886 13.0235C18.1872 11.8412 19.0794 10.1822 19.5131 8.13807C20.3356 4.26159 19.2669 1.76621 16.2859 0.602781C15.1382 0.154784 14.783 0.126095 9.50446 0.0550733C4.64414 -0.01013 3.8939 0.0203651 3.61718 0.295423ZM62.5521 0.364839C62.1216 0.837513 58.7343 22.0155 59.0064 22.533C59.1665 22.8371 59.5096 22.884 61.5748 22.884C63.5961 22.884 64.0044 22.8307 64.2591 22.533C64.4367 22.3257 64.7461 20.9494 65.0148 19.1725C65.2651 17.5173 65.5917 15.9729 65.7404 15.7402C65.9883 15.3534 66.248 15.3082 68.8007 15.2081C72.0847 15.0793 73.7884 14.6331 75.2598 13.5168C76.5005 12.5755 76.8208 12.1953 77.5525 10.7964C79.2625 7.52637 79.1111 3.54616 77.2098 1.79028C75.6027 0.306457 74.0401 0.0127413 67.7493 0.0127413C63.3565 0.0127413 62.8408 0.0476502 62.5521 0.364839ZM101.203 0.263523C101.089 0.401554 100.218 5.42883 99.2675 11.4356C97.9951 19.478 97.5975 22.4264 97.7596 22.6204C97.914 22.8052 98.5691 22.884 99.9511 22.884C101.535 22.884 102.004 22.815 102.339 22.533C102.703 22.2256 102.969 20.8333 104.47 11.3557C105.712 3.51205 106.125 0.458331 105.968 0.271147C105.67 -0.0857658 101.498 -0.0923864 101.203 0.263523ZM12.4429 4.9377C13.2385 5.31307 13.561 5.95146 13.561 7.1508C13.561 8.77666 12.7725 9.94752 11.3612 10.4174C10.9837 10.5432 9.93277 10.6459 9.02569 10.6459H7.37626L7.82797 7.84476C8.07644 6.30416 8.33803 4.94993 8.40928 4.83538C8.61677 4.50194 11.6841 4.57978 12.4429 4.9377ZM71.3786 4.91101C71.7547 5.0673 72.1723 5.39914 72.3065 5.64871C72.7023 6.3836 72.5913 8.11962 72.0923 9.00217C71.4109 10.2071 70.6984 10.5189 68.4112 10.6122C66.6386 10.6846 66.4432 10.6575 66.4432 10.3403C66.4432 9.92725 67.2215 5.24526 67.3511 4.87791C67.4772 4.521 70.4994 4.54588 71.3786 4.91101ZM25.5706 7.5055C21.2185 8.63462 18.2502 12.8849 18.6727 17.3821C18.8222 18.9749 19.33 20.1604 20.3366 21.268C21.3028 22.3309 22.2533 22.8144 23.8882 23.074C26.0271 23.4135 28.2157 22.8895 29.7468 21.6713C30.1568 21.3453 30.5269 21.0784 30.5697 21.0784C30.6125 21.0784 30.6075 21.3501 30.5584 21.6821C30.4056 22.7171 30.7362 22.884 32.9401 22.884C34.5236 22.884 34.9979 22.8144 35.3515 22.5297C35.7421 22.2154 35.9171 21.3892 36.9039 15.1967C37.7954 9.60144 37.9668 8.15894 37.7682 7.921C37.5702 7.68386 37.0498 7.63551 35.1786 7.68065L32.8368 7.73682L32.6618 8.44062L32.4868 9.14421L31.8359 8.53411C31.4778 8.19846 30.8301 7.80965 30.3962 7.66981C29.2136 7.28883 26.7313 7.20436 25.5706 7.5055ZM84.4282 7.53981C82.7947 7.99583 81.5025 8.77606 80.2931 10.0364C77.6668 12.7731 76.8745 16.7369 78.3387 19.8141C79.385 22.0135 81.2979 23.1224 84.0762 23.1402C85.8036 23.1513 87.252 22.7147 88.6424 21.764L89.6448 21.0786L89.5237 21.6799C89.3142 22.7219 89.6476 22.884 92.0007 22.884C93.7286 22.884 94.1571 22.8225 94.4486 22.5322C94.7188 22.2629 95.0581 20.5506 95.8935 15.2368C96.4942 11.4179 96.9284 8.1455 96.8587 7.96493C96.7516 7.68727 96.3753 7.63651 94.4292 7.63651C91.9801 7.63651 91.8368 7.68907 91.6012 8.67073L91.4734 9.2034L90.807 8.54093C90.4404 8.17659 89.7814 7.77414 89.3426 7.64674C87.9945 7.25512 85.6318 7.20376 84.4282 7.53981ZM40.1368 7.77033C39.8657 8.03977 40.0435 8.6579 42.1943 14.9246L44.3859 21.3099L42.2874 24.2527C40.9843 26.08 40.2108 27.348 40.247 27.5977C40.3015 27.9765 40.4565 28 42.905 28H45.5053L52.337 18.1988C58.101 9.92966 59.1368 8.3381 58.964 8.0171C58.7806 7.67643 58.5095 7.63651 56.3793 7.63651C54.1671 7.63651 53.9707 7.66821 53.5906 8.08792C53.3656 8.33629 52.0233 10.2378 50.6078 12.3139C49.1923 14.3898 48.0085 16.06 47.9771 16.0255C47.9456 15.9908 47.4024 14.2471 46.7698 12.1506C46.1375 10.054 45.4773 8.18061 45.3029 7.98761C45.035 7.69128 44.6178 7.63651 42.6285 7.63651C41.3321 7.63651 40.2106 7.6967 40.1368 7.77033ZM30.4504 11.9716C31.4976 12.7488 31.8248 13.3876 31.8064 14.6201C31.7594 17.8014 28.5418 19.9487 25.7262 18.6781C24.5781 18.1601 24.0572 17.2788 24.062 15.8622C24.0681 14.0046 25.0581 12.4955 26.7816 11.7162C27.6663 11.3162 29.764 11.4622 30.4504 11.9716ZM89.2744 11.8615C91.2363 12.8562 91.357 15.8313 89.5118 17.7105C88.1984 19.0479 86.1945 19.4194 84.6012 18.6208C82.9891 17.8126 82.54 15.9372 83.479 13.9327C84.4892 11.7764 87.1977 10.8084 89.2744 11.8615Z" fill="#EEE3D7"/>
</svg>
