<svg width="137" height="47" viewBox="0 0 137 47" fill="none" xmlns="http://www.w3.org/2000/svg">
<path fill-rule="evenodd" clip-rule="evenodd" d="M76.8177 0.219122C72.838 1.07125 69.1701 2.73819 64.3574 5.88215C60.8687 8.16115 58.0985 10.4502 54.1501 14.3163C48.6744 19.6781 45.4615 23.3122 42.4115 27.594C39.1973 32.1067 36.2339 37.5563 34.8835 41.438C34.1957 43.4154 34.095 43.8747 34.091 45.0562C34.0865 46.2938 34.1204 46.4368 34.4864 46.7267C34.7066 46.9012 34.9995 47.0226 35.1373 46.9965C35.2823 46.969 35.8172 45.9909 36.4059 44.6767C37.5366 42.1526 38.8307 40.0062 41.9844 35.425C45.9305 29.693 48.6452 26.5258 54.6496 20.6503C60.7693 14.662 63.1729 12.8482 68.5042 10.1957C74.0045 7.459 78.4368 5.96314 83.8799 5.00664C86.4161 4.5611 86.782 4.30887 86.3521 3.30205C86.1047 2.72293 84.5943 1.4311 83.5615 0.915598C81.823 0.0477217 78.9868 -0.245249 76.8177 0.219122ZM37.1798 3.0844C36.8858 3.37217 36.9295 3.75312 37.8284 8.71496C39.4798 17.8328 40.5427 22.3351 41.1936 22.9722C41.8195 23.5847 42.5295 22.6128 43.1278 20.3239C43.7136 18.0829 43.8679 16.2522 43.6524 14.0977C43.2591 10.1657 41.8136 6.90844 39.1975 4.05907C38.4691 3.2657 37.4819 2.78883 37.1798 3.0844ZM7.46413 13.2077C5.76762 13.4096 4.54715 13.6244 4.42673 13.7422C4.3151 13.8514 0 35.5612 0 36.0137C0 36.0916 1.04664 36.1554 2.32566 36.1554C4.58231 36.1554 4.65596 36.1445 4.80226 35.7902C4.88536 35.5893 5.27548 33.7816 5.66959 31.773L6.38598 28.121L8.79109 28.0244C10.5146 27.9553 11.5722 27.8259 12.5232 27.5683C15.7115 26.7044 17.9113 24.741 18.7653 21.9969C19.2379 20.4789 19.1651 17.9144 18.6189 16.8297C17.8429 15.2889 16.1569 14.0704 14.016 13.5031C13.0393 13.2442 8.77318 13.0521 7.46413 13.2077ZM12.3268 17.2379C13.5632 17.6693 14.153 18.5375 14.1517 19.9243C14.151 20.5619 14.0293 21.049 13.7257 21.6286C12.8123 23.3723 11.5883 24.0012 8.89194 24.1131L7.08529 24.1881L7.17917 23.8009C7.23075 23.5882 7.51257 22.1358 7.80533 20.5736C8.09809 19.0113 8.44144 17.5687 8.56816 17.3679C8.77948 17.0332 8.91997 17.0034 10.2463 17.0099C11.0424 17.0138 11.9786 17.1163 12.3268 17.2379ZM99.406 19.283C97.3877 19.6323 95.5688 20.6782 93.9233 22.4354C92.012 24.4765 91.0972 27.1406 91.2762 30.1439C91.3852 31.973 91.7126 33.0455 92.477 34.076C94.3171 36.5573 98.6481 37.3003 103.153 35.9077C103.871 35.6857 104.544 35.4044 104.647 35.2825C104.848 35.0453 104.724 32.4555 104.494 32.0915C104.402 31.9454 104.113 31.9843 103.337 32.2471C101.284 32.9423 98.8167 32.9937 97.5852 32.3671C96.6824 31.9074 96.0385 30.9553 96.0385 30.0796C96.0385 29.7091 96.0611 29.705 98.6509 29.6157C101.402 29.5211 102.564 29.3021 104.11 28.588C105.149 28.1075 106.145 27.1921 106.561 26.3343C107.006 25.4156 107.089 23.7617 106.746 22.6096C106.342 21.2483 105.117 20.0744 103.633 19.6258C102.309 19.2257 100.558 19.0837 99.406 19.283ZM116.271 19.2756C114.138 19.5344 112.378 20.4705 110.688 22.2442C108.555 24.4833 107.713 26.7862 107.857 29.9835C107.959 32.2419 108.333 33.3461 109.38 34.4859C111.372 36.6547 115.508 37.2119 119.797 35.8892C120.556 35.6552 121.146 35.3735 121.241 35.1997C121.395 34.9184 121.206 32.1622 121.021 31.9808C120.976 31.9374 120.469 32.0543 119.893 32.2405C117.784 32.922 115.404 32.9942 114.25 32.4117C113.305 31.9345 112.625 31.0067 112.625 30.1939V29.735L114.678 29.6904C119.241 29.5915 122.11 28.4268 123.142 26.2544C123.645 25.1962 123.619 23.065 123.091 21.9985C122.662 21.1319 121.653 20.1666 120.82 19.8261C119.653 19.3491 117.656 19.1074 116.271 19.2756ZM26.9309 19.5966C23.6752 20.4319 20.9281 22.642 19.5632 25.524C18.6836 27.3814 18.4948 28.2984 18.4946 30.718C18.4945 32.6482 18.531 32.9041 18.9229 33.7217C19.8216 35.5964 21.4227 36.5608 23.6364 36.561C25.4442 36.5612 26.5021 36.052 28.1645 34.3818L29.3878 33.1526L29.3319 34.6134L29.276 36.0742L31.3941 36.1197C33.0001 36.1541 33.5297 36.115 33.5846 35.9574C33.6244 35.8431 33.7377 34.7636 33.8362 33.5584C34.0306 31.1814 34.3352 29.2747 35.3397 24.1444C36.1125 20.1976 36.1281 19.9599 35.6205 19.849C32.6684 19.2041 28.8887 19.0944 26.9309 19.5966ZM60.9571 19.5692C56.2386 20.9423 53.1221 25.7219 53.7507 30.6212C54.2553 34.5537 56.8696 36.5149 61.6007 36.5104C64.9391 36.507 67.6683 34.8749 69.5461 31.7589C70.6105 29.9928 70.9093 28.7865 70.9093 26.2544C70.9093 24.128 70.8937 24.0309 70.3808 22.9717C69.7263 21.6198 68.6723 20.5925 67.2236 19.8946C66.1856 19.3945 66.0163 19.3642 64.0398 19.3231C62.4191 19.2893 61.7297 19.3444 60.9571 19.5692ZM82.686 19.5675C81.8314 19.8581 80.8875 20.4562 79.6592 21.4854L78.9546 22.0759L79.0616 20.8378L79.1684 19.5997H77.0819C75.238 19.5997 74.9855 19.6326 74.9099 19.8837C74.8628 20.04 74.1853 23.6006 73.4044 27.7964C72.6234 31.9921 71.9463 35.5893 71.8998 35.7902L71.8152 36.1554H74.2276C76.577 36.1554 76.6437 36.1458 76.7805 35.7902C76.8578 35.5893 77.1936 33.9277 77.5263 32.0976C78.2163 28.3043 78.6049 26.8915 79.324 25.5643C80.2842 23.7919 81.8845 22.78 83.0814 23.1882C83.7559 23.4184 84.0959 24.0679 84.0959 25.1259C84.0959 25.9537 83.4966 29.6787 82.69 33.8642C82.4598 35.059 82.2713 36.0632 82.2713 36.096C82.2713 36.1286 83.3478 36.1554 84.6635 36.1554H87.0558L87.2287 35.6279C87.3237 35.3378 87.7875 33.1648 88.2591 30.7991C89.2578 25.7899 89.4938 22.8993 89.0061 21.6497C88.6712 20.7915 87.8754 19.9706 86.9986 19.5787C86.11 19.1816 83.8388 19.1757 82.686 19.5675ZM134.437 19.4757C133.342 19.8608 132.319 20.6604 131.164 22.0343L130.549 22.7647L130.633 21.872C130.679 21.381 130.75 20.6667 130.791 20.2846L130.866 19.5899L128.754 19.6354L126.641 19.6808L126.514 20.6547C126.09 23.8915 125.427 27.8594 124.669 31.6918L123.802 36.0742L126.198 36.1194C127.517 36.144 128.634 36.1262 128.682 36.0796C128.729 36.033 129.047 34.5884 129.388 32.8696C129.729 31.1505 130.134 29.2694 130.289 28.6891C130.975 26.1092 132.039 24.8706 134.051 24.3095C134.72 24.123 135.453 23.9172 135.681 23.8521C136.11 23.7295 136.126 23.6786 136.911 19.7214L137 19.2751L135.967 19.2879C135.4 19.2949 134.711 19.3794 134.437 19.4757ZM101.421 22.9133C102.062 23.1754 102.342 23.5885 102.342 24.2739C102.342 24.9248 101.661 25.5489 100.618 25.8543C99.4529 26.1957 96.7902 26.3632 96.6273 26.1054C96.4329 25.7975 97.3874 24.1246 98.05 23.6117C99.1653 22.7485 100.395 22.4937 101.421 22.9133ZM118.097 22.968C119.036 23.4281 119.193 24.551 118.418 25.2577C117.935 25.6979 116.427 26.0735 114.648 26.1971C112.897 26.3187 112.901 26.3223 113.516 25.0304C114.383 23.2079 116.575 22.2213 118.097 22.968ZM30.4397 23.0378C30.526 23.1223 30.0347 26.1251 29.6809 27.6748C29.0957 30.2377 27.4962 32.3729 25.9322 32.679C25.1344 32.8352 24.2392 32.3421 23.8678 31.5419C23.2949 30.3077 23.5473 28.0278 24.45 26.2849C25.1951 24.8461 26.775 23.3807 27.9928 22.999C28.465 22.8509 30.2782 22.8798 30.4397 23.0378ZM64.3637 23.2111C65.3954 23.7201 65.8511 24.6279 65.8477 26.1671C65.8434 28.1953 65.2932 29.8501 64.0827 31.4769C62.7314 33.2927 60.4794 33.3693 59.2765 31.6407C58.8024 30.9595 58.6794 29.9991 58.8748 28.5045C59.2239 25.8321 60.5442 23.6406 62.1409 23.0837C63.0485 22.767 63.5184 22.794 64.3637 23.2111Z" fill="#EEE3D7"/>
</svg>