<svg width="189" height="55" viewBox="0 0 189 55" fill="none" xmlns="http://www.w3.org/2000/svg">
<g opacity="0.9">
<path d="M9.30072 16.8719L12.9022 18.6954C13.5651 18.9887 14.2865 19.1208 15.0087 19.0812C15.731 19.0416 16.4341 18.8315 17.0618 18.4675L20.4653 16.2246C21.0509 15.7941 21.5275 15.2293 21.8562 14.5763C22.1848 13.9234 22.3561 13.2009 22.3559 12.4681L22.1399 8.35599C22.0611 7.62903 21.8147 6.93089 21.4206 6.318C21.0265 5.70511 20.4957 5.19452 19.8709 4.82744L16.2695 2.95831C15.6079 2.66162 14.8866 2.52686 14.1639 2.56488C13.4413 2.6029 12.7376 2.81261 12.1098 3.17714L8.70657 5.42009C8.12197 5.85163 7.64604 6.41665 7.31759 7.06939C6.98905 7.72203 6.81708 8.44406 6.81573 9.17658L7.03181 13.2887C7.10177 14.0255 7.34406 14.7349 7.73859 15.358C8.13313 15.9812 8.66867 16.5002 9.30072 16.8719Z" fill="#3C8AAC"/>
<path d="M31.0263 22.1967L27.4249 20.3276C26.7636 20.0345 26.0436 19.9025 25.3228 19.942C24.602 19.9816 23.9004 20.1918 23.2742 20.5555L19.8348 22.7985C19.2524 23.232 18.778 23.7975 18.4497 24.4498C18.1215 25.102 17.9482 25.8229 17.9441 26.555L18.1603 30.6671C18.239 31.3941 18.4854 32.0923 18.8795 32.7051C19.2737 33.318 19.8044 33.8286 20.4291 34.1956L24.0305 36.0192C24.6907 36.3158 25.4105 36.4506 26.1318 36.4126C26.853 36.3746 27.5551 36.1648 28.1812 35.8003L31.5935 33.5574C32.1763 33.1219 32.6506 32.5548 32.9787 31.9011C33.307 31.2474 33.4802 30.5251 33.4843 29.7918L33.2682 25.6888C33.1857 24.9712 32.9403 24.2825 32.5514 23.6767C32.1625 23.0709 31.6405 22.5645 31.0263 22.1967Z" fill="#3C8AAC"/>
<path d="M42.1369 39.5387L38.5354 37.7151C37.8737 37.4184 37.1525 37.2836 36.4298 37.3216C35.7072 37.3596 35.0035 37.5693 34.3758 37.934L30.9725 40.1769C30.3889 40.6094 29.9137 41.1747 29.5854 41.8271C29.2569 42.4796 29.0844 43.2011 29.0816 43.9334L29.2978 48.0455C29.384 48.7608 29.6319 49.4463 30.0223 50.0487C30.4126 50.6512 30.935 51.1544 31.5487 51.5193L35.1502 53.3429C35.813 53.636 36.5344 53.7681 37.2566 53.7285C37.9789 53.689 38.682 53.4788 39.3098 53.1149L42.7221 50.872C43.3051 50.4394 43.7792 49.8739 44.1061 49.2213C44.433 48.5687 44.6036 47.8473 44.6039 47.1155L44.4148 43.0763C44.3371 42.3466 44.0903 41.6459 43.6944 41.0311C43.2986 40.4163 42.7649 39.9049 42.1369 39.5387Z" fill="#3C8AAC"/>
<path d="M15.6032 29.3267L15.4322 26.1264C15.4363 25.3943 15.6095 24.6734 15.9378 24.0212C16.2661 23.3689 16.7404 22.8034 17.3229 22.3699L23.9586 18.0025C24.5847 17.6387 25.2863 17.4285 26.0072 17.389C26.728 17.3494 27.4479 17.4815 28.1092 17.7746L30.9364 19.2334C31.5981 19.5301 32.3193 19.6649 33.042 19.6269C33.7647 19.5889 34.4683 19.3791 35.096 19.0146L38.4994 16.7625C39.0835 16.3305 39.5589 15.7654 39.8874 15.1127C40.2158 14.4602 40.3881 13.7385 40.3902 13.006L40.1741 8.90305C40.0966 8.17445 39.8508 7.47449 39.4567 6.85996C39.0625 6.24533 38.531 5.73337 37.9052 5.36538L34.3037 3.49626C33.6409 3.20312 32.9195 3.07101 32.1972 3.11058C31.4749 3.15015 30.7718 3.36031 30.1441 3.7242L26.6687 5.93068C26.0857 6.36322 25.6116 6.9287 25.2846 7.58135C24.9577 8.23399 24.7872 8.95538 24.7869 9.68717L24.949 12.8875C24.9487 13.6194 24.7781 14.3407 24.4512 14.9934C24.1242 15.646 23.6501 16.2115 23.0672 16.644L16.4316 21.0113C15.8038 21.3759 15.1002 21.5857 14.3776 21.6237C13.6549 21.6617 12.9336 21.5269 12.2719 21.2302L9.45378 19.7805C8.79211 19.4838 8.07083 19.349 7.34811 19.387C6.62548 19.425 5.92185 19.6348 5.29412 19.9993L1.89076 22.2422C1.30615 22.6738 0.830313 23.2388 0.501771 23.8915C0.17323 24.5443 0.00135054 25.2662 0 25.9987L0.216085 30.1108C0.292795 30.8397 0.538323 31.5399 0.932501 32.1546C1.32677 32.7693 1.85861 33.2811 2.48499 33.6485L6.08643 35.472C6.74928 35.7652 7.47065 35.8973 8.19291 35.8578C8.91518 35.8182 9.61837 35.608 10.2461 35.2441L13.6495 33.0011C14.2343 32.5842 14.7152 32.0351 15.0544 31.3973C15.3935 30.7596 15.5814 30.0507 15.6032 29.3267Z" fill="#3C8AAC"/>
<path d="M51.2486 26.2451C51.1684 25.5172 50.9215 24.8184 50.5276 24.2043C50.1337 23.5901 49.6036 23.0775 48.9797 22.7074L45.3782 20.8839C44.7152 20.5914 43.9939 20.4596 43.2718 20.4992C42.5496 20.5388 41.8465 20.7486 41.2186 21.1118L37.8151 23.3548C37.2316 23.7873 36.7566 24.3525 36.4281 25.005C36.0998 25.6574 35.9272 26.3789 35.9245 27.1113L36.0955 30.3207C36.0927 31.0529 35.9202 31.7744 35.5918 32.4269C35.2634 33.0793 34.7883 33.6446 34.2047 34.0772L27.578 38.4354C26.9503 38.7993 26.2472 39.0095 25.5249 39.049C24.8027 39.0886 24.0813 38.9565 23.4184 38.6634L20.5912 37.2045C19.9299 36.9114 19.21 36.7793 18.4892 36.8189C17.7683 36.8585 17.0668 37.0686 16.4406 37.4325L13.0012 39.6663C12.4188 40.0999 11.9444 40.6653 11.6161 41.3175C11.2878 41.9697 11.1147 42.6907 11.1105 43.4228L11.3265 47.5348C11.4054 48.2618 11.6517 48.96 12.0458 49.5729C12.44 50.1858 12.9708 50.6964 13.5955 51.0634L17.197 52.9326C17.857 53.2292 18.5769 53.3639 19.298 53.3259C20.0193 53.2879 20.7214 53.0781 21.3476 52.7136L24.7599 50.4707C25.3419 50.0367 25.8159 49.4711 26.1441 48.819C26.4724 48.1668 26.6458 47.4462 26.6507 46.7143L26.4797 43.5048C26.4817 42.7724 26.6539 42.0507 26.9824 41.3981C27.3108 40.7455 27.7863 40.1804 28.3704 39.7483L34.997 35.381C35.6247 35.0165 36.3284 34.8067 37.0511 34.7687C37.7737 34.7306 38.495 34.8654 39.1567 35.1621L41.9748 36.6119C42.6365 36.9086 43.3578 37.0433 44.0805 37.0053C44.8031 36.9673 45.5067 36.7576 46.1345 36.3931L49.5469 34.1501C50.1293 33.717 50.603 33.1515 50.9299 32.499C51.2568 31.8464 51.4276 31.1252 51.4286 30.3936L51.2486 26.2451Z" fill="#3C8AAC"/>
<path d="M63.6549 25.8C63.6549 34.8257 70.3664 42.5091 81.3361 42.5091C86.2424 42.5091 89.4824 41.028 92.4909 38.76L90.1304 34.2703C87.8624 35.9829 84.8538 37.2326 81.3824 37.2326C74.0229 37.2326 69.7184 32.0949 69.7184 25.8C69.7184 19.5051 74.0229 14.3674 81.3824 14.3674C84.8538 14.3674 87.8624 15.6634 90.1304 17.3297L92.4909 12.8863C89.4824 10.6183 86.2424 9.09086 81.3361 9.09086C70.3664 9.09086 63.6549 16.7743 63.6549 25.8ZM102.648 42V18.5794H96.9553V42H102.648ZM96.1222 11.6366C96.1222 13.6731 97.6959 15.2006 99.8251 15.2006C101.954 15.2006 103.62 13.6731 103.62 11.6366C103.62 9.6 101.954 8.02629 99.8251 8.02629C97.6959 8.02629 96.1222 9.6 96.1222 11.6366ZM114.803 18.5794H109.203V42H114.896V31.1691C114.896 24.6891 118.367 23.532 120.45 23.532C121.191 23.532 122.255 23.6709 123.135 23.9949V18.3943C122.44 18.2091 121.977 18.0703 121.191 18.0703C118.691 18.0703 115.59 19.7829 114.803 23.7634V18.5794ZM124.895 30.4286C124.895 37.2326 129.94 42.5091 138.086 42.5091C140.354 42.5091 143.501 42 147.112 39.3154L144.473 35.2886C142.067 37.2326 139.243 37.4177 138.364 37.4177C133.828 37.4177 130.634 34.4554 130.634 30.2897C130.634 26.0777 133.828 23.1617 138.364 23.1617C139.243 23.1617 142.067 23.3006 144.473 25.2909L147.112 21.2177C143.501 18.5794 140.354 18.0703 138.086 18.0703C129.801 18.0703 124.895 23.4857 124.895 30.4286ZM157.206 42V8.53543H151.513V42H157.206ZM182.969 34.8257C180.978 36.6309 178.803 37.6954 175.887 37.6954C170.842 37.6954 167.833 34.7794 167.833 31.0766H187.273C187.273 22.0509 181.302 18.0703 174.961 18.0703C167.556 18.0703 162.14 23.532 162.14 30.3823C162.14 37.0474 167.185 42.5091 175.609 42.5091C179.22 42.5091 183.061 41.5371 186.209 38.0194L182.969 34.8257ZM174.961 22.6063C177.368 22.6063 180.562 23.6246 181.441 27.2349H168.111C169.314 23.6246 172.462 22.6063 174.961 22.6063Z" fill="#1B1B1B"/>
</g>
</svg>
