<svg width="569" height="430" viewBox="0 0 569 430" fill="none" xmlns="http://www.w3.org/2000/svg">
<g clip-path="url(#clip0_2708_4636)">
<g clip-path="url(#clip1_2708_4636)">
<rect x="138.055" y="-0.000976562" width="265.196" height="547.795" rx="32.7915" fill="#3C8AAC"/>
<mask id="mask0_2708_4636" style="mask-type:alpha" maskUnits="userSpaceOnUse" x="138" y="-34" width="266" height="635">
<rect x="138.055" y="-33.5986" width="265.196" height="634.009" rx="32.7915" fill="#3C8AAC"/>
</mask>
<g mask="url(#mask0_2708_4636)">
<path d="M363.497 426.193C377.601 396.712 409.39 375.603 444.593 395.347C479.796 415.09 418.529 598.502 350.696 610.468C282.863 622.435 254.792 575.38 225.393 562.301C171.445 538.299 167.003 466.702 210.454 450.68C253.906 434.659 288.459 465.208 313.685 470.098C338.911 474.989 349.393 455.673 363.497 426.193Z" fill="#F8EFE5"/>
<path d="M153.656 397.085C154.29 407.01 148.384 422.122 126.971 423.769C105.559 425.416 87.7677 390.166 110.122 378.152C136.194 364.139 152.614 380.794 153.656 397.085Z" fill="#1B1B1B"/>
<path d="M433.146 302.685C433.78 312.611 423.495 320.812 414.217 325.333C384.726 334.343 361.352 291.851 388.169 279.321C414.985 266.792 432.512 292.759 433.146 302.685Z" fill="#F8EFE5"/>
</g>
<path d="M366.242 224.145L356.708 170.578" stroke="#1B1B1B" stroke-width="0.721263" stroke-linecap="round" stroke-linejoin="round"/>
<path d="M362.1 193.059C362.221 193.704 361.794 194.325 361.147 194.446C360.501 194.566 359.879 194.14 359.759 193.494L356.086 173.781C355.966 173.135 356.393 172.514 357.039 172.394C357.686 172.274 358.308 172.7 358.428 173.346L362.1 193.059Z" fill="#EBC7B5"/>
<path d="M359.72 238.155C359.559 237.904 359.38 237.664 359.185 237.437C366.855 188.029 378.984 172.956 378.984 172.956C371.068 193.823 363.391 223.823 359.855 238.364L359.72 238.155Z" fill="#F8EFE5"/>
<path d="M364.462 244.208C364.087 203.971 364.746 168.944 364.746 168.944C369.139 191.262 366.783 228.155 365.372 244.791C365.065 244.604 364.761 244.41 364.462 244.208Z" fill="#1B1B1B"/>
<path d="M368.906 244.609C368.906 244.609 368.554 189.326 359.413 160.698C359.413 160.706 363.285 201.04 368.906 244.609Z" fill="#F8EFE5"/>
<path d="M365.176 223.127L371.719 161.351" stroke="#1B1B1B" stroke-width="0.721263" stroke-linecap="round" stroke-linejoin="round"/>
<path d="M350.914 108.114C347.566 104.748 337.376 102.212 337.376 102.212L331.422 100.91C331.422 100.91 331.983 112.348 332.298 112.348C332.613 112.348 340.503 113.159 340.503 113.159L344.716 112.381" fill="#3C8AAC"/>
<path d="M252.872 96.7978C252.872 99.0419 254.336 100.504 256.991 103.156C259.358 105.52 268.443 113.068 270.241 114.556L270.473 114.751L270.713 114.564C273.626 112.267 288.276 100.725 290.321 98.6678C292.221 96.751 294.722 95.5442 297.406 95.2493L300.099 94.8267L299.725 90.2524H302.691V106.896L313.176 94.1796L314.611 90.0654H322.527L321.778 93.8056L322.344 94.0263L328.392 96.3938C328.542 96.435 328.692 96.4836 328.838 96.5397L329.029 96.607C332.069 97.7552 334.212 100.856 336.758 107.644C340.095 116.527 345.705 134.798 347.244 140.558C347.869 142.903 347.656 144.784 346.607 146.168C345.263 147.919 342.578 148.805 338.631 148.805C336.357 148.805 332.946 148.165 329.336 147.485C326.257 146.905 322.771 146.25 319.651 145.951L320.176 146.108L318.573 150.888C318.573 150.888 308.918 151.58 305.349 154.206C303.025 155.953 300.876 157.922 298.934 160.085L282.082 159.996L280.873 158.249C280.194 157.268 279.727 156.156 279.501 154.985C279.276 153.814 279.296 152.608 279.562 151.446L286.265 119.418L285.543 119.837C282.052 121.846 277.513 124.475 275.712 125.597C274.664 126.252 272.214 127.781 269.503 127.781C268.557 127.776 267.622 127.577 266.755 127.199C265.889 126.82 265.108 126.269 264.462 125.578C263.268 124.228 252.707 112.305 250.003 109.604C247.198 106.799 244.805 106.986 244.783 106.986C250.602 106.533 252.688 102.561 252.872 96.7978ZM332.077 137.124L327.085 125.765L323.149 137.199L332.077 137.124Z" fill="#EBC7B5"/>
<path d="M312.136 147.473C312.885 147.099 313.686 145.977 313.686 145.977C313.686 145.977 314.341 143.198 312.911 141.313C311.48 139.428 308.2 138.279 308.2 138.279L299.849 141.44L294.958 143.59L290.951 147.473L287.79 152.271L288.131 153.393L288.756 153.55C288.756 153.55 289.808 153.442 289.808 153.176C289.808 152.911 293.879 149.436 293.879 149.436L297.205 146.538L296.37 149.855C296.307 150.118 296.31 150.392 296.379 150.653C296.448 150.914 296.581 151.154 296.767 151.351C297.392 151.976 299.856 153.034 299.856 153.034L303.433 154.197H305.365C305.365 154.197 306.44 152.466 306.44 151.811C306.44 151.157 305.769 149.855 305.769 149.855C307.974 149.3 310.109 148.501 312.136 147.473V147.473Z" fill="#F8EFE5"/>
<path d="M301.147 171.751C306.128 160.74 310.247 157.385 318.782 157.385H330.017C343.147 157.385 351.614 154.093 356.344 146.912C351.168 160.377 341.997 175.712 336.091 185.608L335.904 185.922C334.422 188.388 332.327 190.429 329.822 191.848C327.318 193.268 324.489 194.017 321.61 194.023L284.535 193.836C291.849 191.031 296.455 182.148 301.147 171.751Z" fill="#F8EFE5"/>
<path d="M310.969 96.8421L302.681 106.892V96.4082L310.969 96.8421Z" fill="#F8EFE5"/>
<path d="M252.114 101.539C252.114 101.539 250.563 107.049 245.421 107.011C240.28 106.974 239.107 105.923 239.107 105.923L235.258 102.833L233.951 102.126L232.176 101.539L231.827 99.9609L229.206 99.0259L228.082 98.203L220.402 90.5132C220.402 90.5132 218.971 89.638 220.6 89.638C222.229 89.638 222.405 89.7315 222.405 89.7315L226.614 93.0977L225.783 89.6193L228.03 90.0607L229.985 93.8794L229.846 92.4993L231.326 92.0766L232.449 93.2997L233.164 95.4503H234.539L235.13 94.5489L236.224 95.1099L236.52 95.5288C236.52 95.5288 243.186 96.1459 244.8 95.4951C246.414 94.8443 246.624 93.5876 246.414 92.9256C246.204 92.2636 244.399 88.7292 244.167 88.0148C243.935 87.3004 243.721 86.1148 244.26 85.6248C244.409 85.4849 244.587 85.3808 244.782 85.3205C244.977 85.2601 245.183 85.2453 245.384 85.277L249.447 90.9508C249.447 90.9508 252.226 94.9304 252.424 95.6073C252.623 96.2843 253.147 99.9011 252.114 101.539Z" fill="#F8EFE5"/>
<path d="M194.224 149.116C194.224 153.672 198.811 157.367 204.474 157.367C210.136 157.367 214.742 153.672 214.742 149.116H194.224Z" fill="#F8EFE5"/>
<path d="M204.47 157.374H207.421C207.882 157.374 208.338 157.464 208.764 157.64C209.19 157.816 209.577 158.074 209.903 158.399C210.229 158.725 210.487 159.111 210.664 159.537C210.84 159.962 210.93 160.418 210.93 160.879H198.01C198.01 159.949 198.379 159.058 199.037 158.4C199.696 157.743 200.588 157.374 201.519 157.374H204.47Z" fill="#F8EFE5"/>
<path d="M204.465 157.371C204.465 157.371 205.155 157.58 206.042 157.831C207.806 158.324 210.36 158.953 209.899 158.407L209.854 158.358C209.695 158.205 209.562 158.027 209.461 157.831C209.388 157.672 209.356 157.498 209.368 157.325C209.379 157.151 209.435 156.983 209.529 156.836C209.845 156.36 210.257 155.955 210.738 155.646C210.929 155.504 211.143 155.358 211.382 155.209L211.412 155.186L211.607 155.04C211.92 154.694 212.267 154.378 212.641 154.098L207.772 153.245L204.9 156.836L204.465 157.371Z" fill="#F8EFE5"/>
<path d="M196.298 154.102C196.662 154.369 196.998 154.673 197.298 155.01L197.549 155.205H197.575C197.792 155.34 197.991 155.474 198.167 155.605C198.658 155.919 199.078 156.33 199.403 156.813C199.496 156.96 199.552 157.128 199.563 157.302C199.575 157.476 199.543 157.65 199.47 157.808C199.375 158.003 199.248 158.181 199.095 158.335L199.05 158.384C198.59 158.945 201.144 158.302 202.908 157.808C203.795 157.558 204.484 157.348 204.484 157.348L204.057 156.813L201.185 153.223L196.298 154.102Z" fill="#F8EFE5"/>
<path d="M194.223 148.124H214.727V149.119H194.223V148.124Z" fill="#1B1B1B"/>
<path d="M199.472 157.839H209.464C209.391 157.68 209.359 157.506 209.37 157.333C209.382 157.159 209.437 156.991 209.531 156.844H199.42C199.511 156.992 199.564 157.161 199.573 157.335C199.582 157.508 199.548 157.682 199.472 157.839V157.839Z" fill="#1B1B1B"/>
<path d="M208.214 249.359H217.984L216.453 248.76L210.929 248.831L208.352 248.76L208.356 245.413L210.929 242.35V163.851H208.214V247.896H202.286L201.099 249.359H208.214Z" fill="#1B1B1B" stroke="#1B1B1B" stroke-width="0.801404" stroke-linecap="round" stroke-linejoin="round"/>
<path d="M239.903 245.48C238.803 245.242 237.658 245.34 236.615 245.76L236.397 245.809H236.262C235.824 245.809 235.382 245.809 234.941 245.764C233.986 245.704 233.034 245.596 232.079 245.525C229.304 245.315 226.743 245.151 223.968 245.525C218.924 246.217 213.508 245.499 208.355 245.409V243.823C208.355 243.052 208.213 242.14 209.572 241.205C210.932 240.27 212.52 239.963 217.062 238.991C221.605 238.018 225.346 234.633 225.346 234.633L225.638 231.78L226.593 231.147H231.9V234.42H236.768L239.67 234.603L241.086 239.092L240.681 243.681L239.903 245.48Z" fill="#F8EFE5"/>
<path d="M288.688 179.077L267.435 179.133L265.525 180.828C265.525 180.828 261.548 187.758 261.893 187.758H275.528C275.966 187.758 279.853 187.01 281.317 186.195C282.782 185.379 286.669 181.916 286.669 181.916L288.688 179.077Z" fill="#F8EFE5"/>
<path d="M186.029 159.757V163.871H225.028C225.028 163.871 224.676 162.67 225.32 159.757H186.029Z" fill="#EBC7B5"/>
<path d="M231.718 232.19L231.906 234.435L236.089 234.016C236.089 234.016 236.647 232.19 235.452 232.19H231.718Z" fill="#1B1B1B"/>
<path d="M356.829 226.383C356.874 228.25 356.964 230.12 357.099 231.993C357.276 234.486 357.526 236.989 357.848 239.5C357.881 239.75 357.915 239.997 357.953 240.248C358.365 243.212 358.889 246.187 359.526 249.172H371.652C372.288 246.179 372.812 243.205 373.224 240.248C373.262 239.997 373.296 239.75 373.329 239.5C373.664 236.994 373.913 234.491 374.078 231.993C374.213 230.12 374.303 228.25 374.348 226.383C374.56 217.636 373.806 208.892 372.101 200.31C371.959 199.562 371.806 198.824 371.644 198.096H359.533C359.371 198.844 359.218 199.582 359.076 200.31C357.371 208.892 356.617 217.636 356.829 226.383V226.383Z" fill="#F8EFE5"/>
<path d="M357.099 231.995C357.276 234.489 357.526 236.991 357.848 239.502C357.881 239.752 357.915 239.999 357.952 240.25H373.224C373.262 239.999 373.295 239.752 373.329 239.502C373.664 236.996 373.913 234.494 374.078 231.995H357.099Z" fill="#1B1B1B"/>
<path d="M359.085 200.31H372.109C371.967 199.562 371.815 198.824 371.652 198.096H359.541C359.377 198.834 359.224 199.572 359.085 200.31Z" fill="#1B1B1B"/>
<path d="M369.86 166.026C369.941 165.258 370.63 164.701 371.398 164.782C372.166 164.863 372.723 165.552 372.642 166.32L370.16 189.745C370.079 190.513 369.39 191.07 368.622 190.989C367.853 190.908 367.297 190.219 367.378 189.451L369.86 166.026Z" fill="#EBC7B5"/>
<path d="M229.337 74.7723C226.119 74.7723 223.51 72.1667 223.51 68.9525C223.51 65.7384 226.119 63.1328 229.337 63.1328C232.555 63.1328 235.164 65.7384 235.164 68.9525C235.164 72.1667 232.555 74.7723 229.337 74.7723Z" fill="#3C8AAC"/>
<path d="M240.246 65.5612C238.091 65.5612 236.344 63.8163 236.344 61.6639C236.344 59.5115 238.091 57.7666 240.246 57.7666C242.401 57.7666 244.148 59.5115 244.148 61.6639C244.148 63.8163 242.401 65.5612 240.246 65.5612Z" stroke="#1B1B1B" stroke-width="0.801404" stroke-linecap="round" stroke-linejoin="round"/>
<path d="M223.518 58.1043C222.44 58.1043 221.567 57.2318 221.567 56.1556C221.567 55.0795 222.44 54.207 223.518 54.207C224.595 54.207 225.469 55.0795 225.469 56.1556C225.469 57.2318 224.595 58.1043 223.518 58.1043Z" fill="#1B1B1B"/>
<path d="M230.159 77.1879C223.666 77.1879 218.403 71.9315 218.403 65.4475C218.403 58.9634 223.666 53.707 230.159 53.707C236.651 53.707 241.914 58.9634 241.914 65.4475C241.914 71.9315 236.651 77.1879 230.159 77.1879Z" stroke="#1B1B1B" stroke-width="0.717256" stroke-linecap="round" stroke-linejoin="round"/>
<path d="M223.632 76.455C221.892 76.455 220.482 75.0468 220.482 73.3096C220.482 71.5723 221.892 70.1641 223.632 70.1641C225.371 70.1641 226.781 71.5723 226.781 73.3096C226.781 75.0468 225.371 76.455 223.632 76.455Z" fill="#EBC7B5"/>
<path d="M306.826 98.4786L302.681 96.4103V91.2302V86.0276H300.786C300.786 86.0276 298.479 82.5978 298.479 82.3584C298.479 82.1191 296.607 78.0909 296.423 76.9576C296.24 75.8243 295.704 73.2922 295.869 71.2838C296.034 69.2753 296.056 68.9387 296.056 68.9387L295.307 65.5725L296.082 59.7827L294.273 58.5522C294.273 58.5522 292.334 56.5886 292.334 54.4903C292.334 52.3921 292.97 50.2078 293.903 49.2728C294.835 48.3377 298.325 45.5139 303.913 46.0712C309.5 46.6285 316.028 51.401 316.028 51.401L317.338 51.0269C317.338 51.0269 321.537 51.8124 323.652 55.1673C325.768 58.5223 325.15 67.5099 325.15 67.5099L324.735 69.1706V70.1168L324.386 71.5605L323.315 71.6765C323.315 71.6765 323.106 74.7921 321.608 76.0974C320.11 77.4027 320.282 77.6383 320.282 77.6383V90.067H314.601L313.167 94.1812L306.826 101.489L305.973 99.5932L306.826 98.4786Z" fill="#F8EFE5"/>
<path d="M279.461 194.413H259.092" stroke="#1B1B1B" stroke-width="0.801404" stroke-linecap="round" stroke-linejoin="round"/>
<path d="M344.688 155.014C340.692 156.345 335.838 157.007 330.019 157.007H318.784C310.545 157.007 306.051 159.999 300.808 171.594C298.022 177.761 295.127 183.821 291.446 188.144" stroke="#1B1B1B" stroke-width="0.801404" stroke-linecap="round" stroke-linejoin="round"/>
<path d="M334.906 101.483C358.525 105.052 362.656 124.399 359.622 137.935" stroke="#1B1B1B" stroke-width="0.801404" stroke-linecap="round" stroke-linejoin="round"/>
<path d="M342.769 110.036C344.517 110.883 346.142 111.962 347.6 113.245C352.906 117.962 354.715 125.165 354.011 132.107C352.798 144.334 346.896 150.808 328.92 150.808H317.685C309.446 150.808 300.058 154.922 294.841 166.517C289.201 179.072 285.958 187.738 273.495 187.738H262.26" stroke="#1B1B1B" stroke-width="0.801404" stroke-linecap="round" stroke-linejoin="round"/>
<path d="M284.86 126.173L287.328 114.373Z" fill="#F8EFE5"/>
<path d="M284.86 126.173L287.328 114.373" stroke="#1B1B1B" stroke-width="0.801404" stroke-linecap="round" stroke-linejoin="round"/>
<path d="M300.079 94.5403L299.719 90.2466H302.681V106.89L313.167 94.1738L314.605 90.0596H322.219" stroke="#1B1B1B" stroke-width="0.801404" stroke-linecap="round" stroke-linejoin="round"/>
<path d="M246.794 215.637C248.802 221.206 250.165 224.853 250.165 224.853C255.917 225.653 259.883 224.011 262.148 220.028L257.471 199.15" fill="#1B1B1B"/>
<path d="M246.794 215.637C248.802 221.206 250.165 224.853 250.165 224.853C255.917 225.653 259.883 224.011 262.148 220.028L257.471 199.15" stroke="#1B1B1B" stroke-width="0.801404" stroke-linecap="round" stroke-linejoin="round"/>
<path d="M297.675 145.171C297.675 145.171 296.69 148.459 296.394 150.164C296.334 150.494 296.393 150.835 296.562 151.125C296.731 151.415 296.998 151.636 297.316 151.746L298.93 152.27" stroke="#1B1B1B" stroke-width="0.801404" stroke-linecap="round" stroke-linejoin="round"/>
<path d="M299.878 146.084C299.878 146.084 298.893 149.372 298.601 151.077C298.539 151.407 298.597 151.748 298.765 152.039C298.934 152.329 299.201 152.549 299.519 152.659L301.133 153.183" stroke="#1B1B1B" stroke-width="0.801404" stroke-linecap="round" stroke-linejoin="round"/>
<path d="M302.062 147.393C301.555 148.9 301.135 150.434 300.804 151.989C300.742 152.319 300.8 152.661 300.969 152.952C301.137 153.243 301.404 153.464 301.721 153.575L303.845 154.263C304.19 154.368 304.561 154.346 304.891 154.199C305.22 154.053 305.486 153.793 305.639 153.467L306.346 152.012C306.457 151.785 306.489 151.529 306.436 151.282C306.383 151.036 306.248 150.815 306.054 150.654L305.845 150.482C305.646 150.32 305.393 150.242 305.138 150.263C304.882 150.285 304.646 150.405 304.478 150.598L303.729 151.428" stroke="#1B1B1B" stroke-width="0.801404" stroke-linecap="round" stroke-linejoin="round"/>
<path opacity="0.84" d="M236.435 95.5747C239.888 95.7056 242.771 95.7729 244.262 95.5971C244.604 95.5701 244.936 95.465 245.231 95.2899C245.527 95.1149 245.778 94.8745 245.966 94.5873C246.221 94.1942 246.363 93.7385 246.377 93.27C246.39 92.8016 246.273 92.3385 246.041 91.9318C245.359 90.6863 244.168 88.3711 243.887 87.1219C243.794 86.7929 243.809 86.4425 243.931 86.123C244.053 85.8035 244.276 85.532 244.565 85.349C244.757 85.2214 244.991 85.1738 245.218 85.2164C245.445 85.259 245.646 85.3885 245.778 85.5772L251.999 94.6696C252.572 95.5074 252.875 97.4747 252.875 97.4747C252.875 104.431 248.83 106.825 244.786 106.979C243.194 107.038 245.962 107.012 244.786 106.979C243.389 106.937 239.61 106.47 238.554 105.606L235.66 103.238C235.307 102.948 235.024 102.582 234.829 102.169C234.635 101.756 234.535 101.305 234.536 100.848V95.0959C234.541 94.9438 234.606 94.7998 234.717 94.6954C234.828 94.591 234.975 94.5346 235.128 94.5387V94.5387C235.434 94.5317 235.733 94.6312 235.973 94.8202C236.214 95.0093 236.381 95.276 236.446 95.5747C236.775 97.3353 237.013 99.1118 237.158 100.897C237.158 100.897 239.405 102.662 240.153 103.369" stroke="#1B1B1B" stroke-width="0.777362" stroke-linecap="round" stroke-linejoin="round"/>
<path opacity="0.84" d="M228.562 98.2883L228.102 98.1985C227.653 98.1132 227.24 97.8972 226.915 97.5777C224.765 95.4645 221.601 91.8627 220.406 90.4713C220.349 90.4053 220.308 90.3267 220.287 90.242C220.266 90.1573 220.265 90.0688 220.284 89.9836C220.303 89.8985 220.342 89.819 220.398 89.7517C220.454 89.6844 220.524 89.6311 220.605 89.5961C220.89 89.4632 221.204 89.4023 221.519 89.4186C221.833 89.4349 222.139 89.528 222.41 89.6896C223.885 90.662 225.274 91.7608 226.559 92.9735" stroke="#1B1B1B" stroke-width="0.777362" stroke-linecap="round" stroke-linejoin="round"/>
<path d="M231.828 99.9632L230.308 99.6752C230.001 99.6212 229.714 99.4897 229.472 99.2933C229.231 99.0969 229.044 98.8421 228.93 98.5532L225.821 90.3248C225.791 90.2381 225.782 90.1453 225.795 90.0544C225.809 89.9635 225.844 89.8773 225.899 89.8035C225.954 89.7296 226.026 89.6703 226.109 89.6308C226.192 89.5912 226.284 89.5727 226.376 89.5767H226.978C227.219 89.5734 227.457 89.6343 227.666 89.7534C227.876 89.8724 228.049 90.0451 228.169 90.2537C228.896 91.559 230.416 94.4464 230.742 96.0024" stroke="#1B1B1B" stroke-width="0.777362" stroke-linecap="round" stroke-linejoin="round"/>
<path d="M234.523 102.306L233.231 101.898C232.945 101.813 232.684 101.657 232.473 101.445C232.262 101.232 232.108 100.97 232.026 100.683L229.846 92.7575C229.826 92.6727 229.827 92.5845 229.847 92.4998C229.867 92.4151 229.906 92.3361 229.961 92.2689C230.016 92.2017 230.087 92.148 230.166 92.1121C230.245 92.0762 230.332 92.059 230.419 92.0618H230.966C231.236 92.058 231.501 92.136 231.727 92.2855C231.952 92.4351 232.127 92.6491 232.228 92.8996C232.602 93.9244 233.28 95.7197 233.774 97.3617L234.523 99.8339" stroke="#1B1B1B" stroke-width="0.777362" stroke-linecap="round" stroke-linejoin="round"/>
<path d="M273.258 126.915C274.11 126.538 274.933 126.097 275.718 125.595C276.366 125.191 280.706 122.647 281.867 121.963" stroke="#1B1B1B" stroke-width="0.801404" stroke-linecap="round" stroke-linejoin="round"/>
<path d="M244.788 106.97C244.788 106.97 247.151 106.742 250.031 109.588C251.398 110.957 254.768 114.675 257.914 118.191" stroke="#1B1B1B" stroke-width="0.801404" stroke-linecap="round" stroke-linejoin="round"/>
<path d="M271.875 115.817C271.875 115.817 259.61 105.767 256.989 103.149C254.367 100.531 252.87 99.0351 252.87 96.791" stroke="#1B1B1B" stroke-width="0.801404" stroke-linecap="round" stroke-linejoin="round"/>
<path d="M313.656 146.19C312.761 146.598 312.327 147.043 311.439 147.802C310.491 148.585 309.388 149.16 308.203 149.491C307.018 149.821 305.777 149.9 304.56 149.721L303.436 152.085" stroke="#1B1B1B" stroke-width="0.801404" stroke-linecap="round" stroke-linejoin="round"/>
<path d="M347.25 140.556C348.748 146.166 345.378 148.784 338.637 148.784C333.394 148.784 322.35 145.418 315.418 145.792C314.812 145.818 314.215 145.955 313.658 146.196" stroke="#1B1B1B" stroke-width="0.801404" stroke-linecap="round" stroke-linejoin="round"/>
<path d="M308.201 138.279C309.339 137.961 310.497 137.722 311.668 137.561C317.286 136.813 332.078 137.12 332.078 137.12C332.078 137.12 327.337 125.858 322.514 116.04" stroke="#1B1B1B" stroke-width="0.801404" stroke-linecap="round" stroke-linejoin="round"/>
<path d="M297.152 147.019L293.83 149.226C293.748 149.297 293.67 149.373 293.598 149.454L290.333 152.899C290.085 153.186 289.756 153.392 289.39 153.491C289.023 153.589 288.636 153.576 288.277 153.453L288.134 153.4C288.029 153.359 287.935 153.294 287.859 153.211C287.782 153.128 287.725 153.029 287.692 152.921C287.66 152.814 287.652 152.7 287.669 152.588C287.687 152.477 287.729 152.371 287.794 152.278C288.677 151.021 289.962 148.946 291.834 146.975C294.081 144.615 295.1 143.713 296.703 143.04C299.673 141.791 303.818 139.55 308.211 138.286" stroke="#1B1B1B" stroke-width="0.801404" stroke-linecap="round" stroke-linejoin="round"/>
<path d="M298.938 160.079H260.608C258.656 160.161 256.773 160.827 255.205 161.992C253.636 163.156 252.455 164.765 251.815 166.609L228.533 230.316C231.81 232.912 235.551 234.43 240.142 234.43L265.671 180.534C265.878 180.098 266.204 179.729 266.613 179.471C267.021 179.212 267.495 179.075 267.978 179.075H288.691C291.964 172.949 292.991 170.611 294.841 166.52C295.865 164.175 297.247 162.002 298.938 160.079Z" fill="#1B1B1B" stroke="#1B1B1B" stroke-width="0.801404" stroke-linecap="round" stroke-linejoin="round"/>
<path d="M248.76 217.258L259.156 195.303" stroke="white" stroke-width="0.801404" stroke-linecap="round" stroke-linejoin="round"/>
<path d="M273.972 137.448C277.11 135.551 280.024 133.305 282.656 130.753" stroke="#1B1B1B" stroke-width="0.801404" stroke-linecap="round" stroke-linejoin="round"/>
<path d="M229.718 156.058C226.493 159.188 224.1 163.587 225.224 169.541C226.561 176.46 229.557 184.109 235.71 188.953C241.484 193.493 240.327 192.637 240.327 192.637" stroke="#1B1B1B" stroke-width="0.801404" stroke-linecap="round" stroke-linejoin="round"/>
<path d="M271.975 194.411H321.614C324.558 194.41 327.451 193.646 330.011 192.194C332.571 190.742 334.71 188.651 336.219 186.126C343.383 174.128 355.618 153.718 359.438 138.604" stroke="#1B1B1B" stroke-width="0.801404" stroke-linecap="round" stroke-linejoin="round"/>
<path d="M302.68 97.9127V87.7207" stroke="#1B1B1B" stroke-width="0.801404" stroke-linecap="round" stroke-linejoin="round"/>
<path d="M320.281 90.0628V74.7168" stroke="#1B1B1B" stroke-width="0.801404" stroke-linecap="round" stroke-linejoin="round"/>
<path d="M237.762 204.372C238.207 199.064 236.844 194.139 231.077 184.459C232.916 186.534 234.957 188.421 237.17 190.092C240.357 192.381 240.338 192.635 240.338 192.635L242.297 199.973L238.739 204.372H237.762Z" fill="#1B1B1B" stroke="#1B1B1B" stroke-width="0.801404" stroke-linecap="round" stroke-linejoin="round"/>
<path d="M275.53 194.413C279.088 194.413 285.769 194.413 285.769 203.453C285.769 212.493 284.451 249.36 284.451 249.36H287.447C287.447 249.36 288.765 210.948 288.765 203.468C288.765 194.428 297.812 194.428 297.812 194.428L275.53 194.413Z" fill="#1B1B1B" stroke="#1B1B1B" stroke-width="0.801404" stroke-linecap="round" stroke-linejoin="round"/>
<path d="M273.297 194.413C273.297 194.413 277.349 194.447 276.244 199.754L263.916 249.36H266.35L278.948 200.184C279.343 198.331 280.359 196.667 281.828 195.468L279.461 194.413H273.297Z" fill="#1B1B1B" stroke="#1B1B1B" stroke-width="0.801404" stroke-linecap="round" stroke-linejoin="round"/>
<path d="M160.655 249.357H378.281" stroke="#1B1B1B" stroke-width="0.801404" stroke-linecap="round" stroke-linejoin="round"/>
<path opacity="0.83" d="M315.711 194.41C315.711 194.41 316.868 194.462 318.826 194.447C323.717 194.41 326.316 202.043 326.316 202.043L341.427 249.357H344.539C344.539 249.357 335.611 221.043 332.181 210.35C328.75 199.657 328.383 199.298 337.776 183.533C337.776 183.533 333.866 191.365 327.178 193.385C322.219 195.61 315.711 194.41 315.711 194.41Z" fill="#1B1B1B" stroke="#1B1B1B" stroke-width="0.801404" stroke-linecap="round" stroke-linejoin="round"/>
<path d="M209.572 241.215C210.928 240.28 212.52 239.973 217.062 239.001C221.605 238.028 225.346 234.644 225.346 234.644L225.638 231.79L226.593 231.146H230.903L231.686 231.565L231.9 234.419H236.768L239.67 234.602L241.086 239.091L240.681 243.68L239.813 245.666C239.059 245.495 238.28 245.469 237.517 245.587C235.645 245.875 229.278 245.804 228.997 245.759H229.046C227.981 245.577 226.887 245.657 225.859 245.991C224.788 245.969 223.721 245.946 222.668 245.935C220.167 245.913 217.68 245.756 215.179 245.651C212.905 245.561 210.636 245.651 208.363 245.61V245.37V243.803C208.37 243.059 208.213 242.146 209.572 241.215Z" fill="#F8EFE5"/>
<path d="M237.848 248.833H210.042C209.557 248.833 209.093 248.641 208.75 248.299C208.407 247.957 208.215 247.492 208.215 247.008V245.654H239.672V247.008C239.672 247.248 239.626 247.485 239.534 247.706C239.443 247.928 239.308 248.129 239.139 248.299C238.97 248.468 238.768 248.603 238.547 248.694C238.325 248.786 238.088 248.833 237.848 248.833Z" stroke="#1B1B1B" stroke-width="0.801404" stroke-linecap="round" stroke-linejoin="round"/>
<path d="M239.671 245.652C241.607 244.339 241.674 234.518 239.135 234.432H231.9" stroke="#1B1B1B" stroke-width="0.801404" stroke-linecap="round" stroke-linejoin="round"/>
<path d="M231.906 235.541V232.209C231.908 232.069 231.882 231.93 231.83 231.801C231.777 231.671 231.699 231.554 231.6 231.455C231.502 231.356 231.384 231.277 231.255 231.224C231.125 231.172 230.986 231.145 230.846 231.147H226.588C226.316 231.148 226.055 231.256 225.863 231.449C225.67 231.642 225.562 231.903 225.562 232.175V234.419L222.735 236.222C220.48 237.662 218.028 238.765 215.455 239.498L209.774 241.114C209.317 241.271 208.921 241.566 208.64 241.958C208.36 242.35 208.209 242.82 208.208 243.302V245.64" stroke="#1B1B1B" stroke-width="0.801404" stroke-linecap="round" stroke-linejoin="round"/>
<path d="M261.237 221.377L261.986 223.793C262.058 224.126 261.997 224.473 261.818 224.762C261.05 226.159 259.899 227.309 258.5 228.076" stroke="#1B1B1B" stroke-width="0.801404" stroke-linecap="round" stroke-linejoin="round"/>
<path d="M251.504 224.989L251.953 226.313" stroke="#1B1B1B" stroke-width="0.801404" stroke-linecap="round" stroke-linejoin="round"/>
<path d="M302.053 140.482C303.564 140.055 305.014 139.436 306.367 138.638L314.673 105.702C317.354 94.2873 326.383 95.746 328.844 96.5314C328.698 96.4753 328.548 96.4267 328.398 96.3855L322.972 94.2499C322.527 94.0746 322.053 93.9882 321.575 93.9955C317.029 94.0741 313.89 96.6698 311.816 103.181C311.014 105.699 305.951 125.566 302.053 140.482Z" fill="#1B1B1B"/>
<path d="M328.445 96.4087C328.179 96.315 327.861 96.1877 327.513 96.0342L328.445 96.4087Z" fill="#39B54A"/>
<path d="M297.666 157.261C297.666 157.261 298.04 155.641 298.928 152.271C300.046 152.967 301.253 153.509 302.516 153.884L301.767 156.808L297.666 157.261Z" fill="#1B1B1B"/>
<path d="M293.135 99.913C294.048 96.5169 295.086 94.6206 300.25 94.3027V94.7628C298.662 95.552 297.254 97.2276 296.55 100.463L285.592 157.531L282.656 157.239C282.656 157.239 292.03 104.042 293.135 99.913Z" fill="#1B1B1B"/>
<path d="M293.055 150.311L291.512 157.264" stroke="#1B1B1B" stroke-width="0.801404" stroke-linecap="round" stroke-linejoin="round"/>
<path d="M302.68 106.889L294.426 144.103" stroke="#1B1B1B" stroke-width="0.801404" stroke-linecap="round" stroke-linejoin="round"/>
<path d="M313.654 146.194C313.654 146.194 314.972 139.435 308.202 138.279" stroke="#1B1B1B" stroke-width="0.801404" stroke-linecap="round" stroke-linejoin="round"/>
<path d="M329.368 137.119L335.734 137.224" stroke="#1B1B1B" stroke-width="0.801404" stroke-linecap="round" stroke-linejoin="round"/>
<path d="M234.523 95.4316H233.377" stroke="#1B1B1B" stroke-width="0.777362" stroke-linecap="round" stroke-linejoin="round"/>
<path d="M245.075 202.957L258.044 169.73L266.133 164.119L264.346 161.617L246.895 159.328C240.21 158.442 231.915 163.259 237.301 182.461C239.035 188.655 239.997 192.462 242.323 199.382" fill="#1B1B1B"/>
<path d="M245.075 202.957L258.044 169.73L266.133 164.119L264.346 161.617L246.895 159.328C240.21 158.442 231.915 163.259 237.301 182.461C239.035 188.655 239.997 192.462 242.323 199.382" stroke="#1B1B1B" stroke-width="0.801404" stroke-linecap="round" stroke-linejoin="round"/>
<path d="M261.109 160.107H260.611C258.661 160.187 256.781 160.85 255.213 162.011C253.645 163.171 252.462 164.775 251.818 166.615L235.887 208.131" stroke="white" stroke-width="0.801404" stroke-linecap="round" stroke-linejoin="round"/>
<path d="M298.935 160.078H233.144C232.663 160.079 232.192 159.94 231.787 159.679C231.382 159.418 231.062 159.047 230.864 158.608L214.981 123.514C214.867 123.261 214.817 122.984 214.836 122.706C214.855 122.429 214.943 122.161 215.091 121.926C215.24 121.691 215.444 121.496 215.687 121.36C215.929 121.223 216.201 121.149 216.479 121.143L264.486 120.47C265.038 120.464 265.581 120.62 266.046 120.917C266.512 121.215 266.881 121.642 267.107 122.145L282.836 157.258H301.328L298.935 160.078Z" fill="#F8EFE5" stroke="#1B1B1B" stroke-width="0.801404" stroke-linecap="round" stroke-linejoin="round"/>
<path d="M303.281 74.0313C302.532 74.6298 301.214 74.7494 300.63 74.7046C299.922 74.6522 299.716 74.2483 299.727 73.7882C299.778 71.554 300 69.3269 300.394 67.127" stroke="#1B1B1B" stroke-width="0.801404" stroke-linecap="round" stroke-linejoin="round"/>
<path d="M299.719 64.7038C299.197 64.43 298.608 64.3109 298.021 64.3606C297.433 64.4103 296.873 64.6268 296.404 64.9843" stroke="#1B1B1B" stroke-width="0.801404" stroke-linecap="round" stroke-linejoin="round"/>
<path d="M322.096 67.6381C322.097 67.2618 322.063 66.8861 321.995 66.516C321.995 66.1196 321.995 65.7306 321.995 65.3379L328.687 71.6962C328.762 71.7731 328.805 71.8765 328.805 71.9842C328.805 72.0919 328.762 72.1953 328.687 72.2722L328.118 72.8557C328.041 72.9308 327.938 72.9729 327.831 72.9729C327.724 72.9729 327.621 72.9308 327.545 72.8557L322.081 67.6531C322.081 67.6531 322.096 67.6531 322.096 67.6381Z" fill="#EBC7B5"/>
<path d="M313.904 57.5997L318.562 62.0879C318.298 62.1835 318.057 62.3358 317.858 62.5342C317.659 62.7326 317.506 62.9722 317.409 63.2361L312.78 58.7928L311.443 56.3691L313.904 57.5997Z" fill="#EBC7B5"/>
<path d="M327.55 72.8783C327.626 72.9535 327.729 72.9956 327.836 72.9956C327.943 72.9956 328.046 72.9535 328.123 72.8783L328.692 72.2911C328.73 72.2539 328.76 72.2094 328.781 72.1602C328.802 72.1111 328.812 72.0583 328.812 72.005C328.812 71.9517 328.802 71.8989 328.781 71.8498C328.76 71.8007 328.73 71.7562 328.692 71.7189L326.134 69.3027C326.178 69.3772 326.196 69.4639 326.186 69.5496C326.176 69.6354 326.138 69.7155 326.078 69.7777L325.513 70.3612C325.436 70.4375 325.332 70.4803 325.224 70.4803C325.116 70.4803 325.012 70.4375 324.936 70.3612L327.55 72.8783Z" fill="#1B1B1B"/>
<path d="M311.438 56.3652L312.775 58.7889L313.898 57.6145L311.438 56.3652Z" fill="#1B1B1B"/>
<path d="M299.557 53.9355C298.075 55.4749 296.931 57.3061 296.197 59.3122C295.463 61.3182 295.156 63.455 295.296 65.5862C295.296 65.5862 296.045 68.0772 296.045 68.9524C296.045 69.8276 295.322 72.7337 296.633 77.4688C297.425 80.1781 298.535 82.7844 299.939 85.2334C300.122 85.555 300.386 85.8224 300.706 86.0084C301.026 86.1943 301.389 86.2922 301.759 86.2919H305.913C307.032 86.2917 308.124 85.9397 309.032 85.2858C311.56 83.4755 316.668 79.7129 317.511 78.3253C318.634 76.4552 318.664 73.4182 318.664 73.4182" stroke="#1B1B1B" stroke-width="0.801404" stroke-linecap="round" stroke-linejoin="round"/>
<path d="M318.743 71.2973C319.758 71.2973 320.41 70.7512 321.177 69.8461C321.885 69.0195 322.443 67.7179 322.159 65.3579C321.552 60.2899 316.758 61.1202 316.758 65.0773" stroke="#1B1B1B" stroke-width="0.801404" stroke-linecap="round" stroke-linejoin="round"/>
<path d="M316.977 63.681C316.977 63.681 313.262 65.9251 309.517 58.5645" stroke="#1B1B1B" stroke-width="0.801404" stroke-linecap="round" stroke-linejoin="round"/>
<path d="M307.914 57.0647C307.914 57.0647 300.847 50.9233 296.065 55.6995" stroke="#1B1B1B" stroke-width="0.801404" stroke-linecap="round" stroke-linejoin="round"/>
<path d="M302.961 64.6471C304.71 64.1198 307.08 64.2731 307.916 64.5611C308.751 64.8491 310.672 66.8688 310.672 66.8688" stroke="#1B1B1B" stroke-width="0.801404" stroke-linecap="round" stroke-linejoin="round"/>
<path d="M321.23 76.2656C321.23 76.2656 324.061 75.282 323.121 71.6689" stroke="#1B1B1B" stroke-width="0.801404" stroke-linecap="round" stroke-linejoin="round"/>
<path d="M325.086 73.523C324.975 72.8306 324.739 72.164 324.389 71.5557" stroke="#1B1B1B" stroke-width="0.801404" stroke-linecap="round" stroke-linejoin="round"/>
<path d="M316.76 50.9434C323.441 51.6914 325.156 57.5822 325.156 60.1367V67.5012" stroke="#1B1B1B" stroke-width="0.801404" stroke-linecap="round" stroke-linejoin="round"/>
<path d="M317.789 52.8756C317.789 52.8756 313.879 49.1691 308.872 47.2055C303.865 45.2419 296.851 45.4887 293.758 49.4496C290.665 53.4104 293.054 57.3788 294.537 58.8599" stroke="#1B1B1B" stroke-width="0.801404" stroke-linecap="round" stroke-linejoin="round"/>
<path d="M301.197 77.8628C303.582 78.1919 305.159 77.6309 305.751 77.6309C306.342 77.6309 305.751 79.8077 303.732 80.1069C303.198 80.1716 302.655 80.1061 302.152 79.9161" stroke="#1B1B1B" stroke-width="0.801404" stroke-linecap="round" stroke-linejoin="round"/>
<path d="M305.344 68.4361C305.226 67.8909 305.426 67.3854 305.79 67.3071C306.154 67.2287 306.544 67.6072 306.662 68.1525C306.78 68.6977 306.58 69.2031 306.216 69.2815C305.852 69.3598 305.462 68.9813 305.344 68.4361Z" fill="#1B1B1B"/>
<path d="M297.43 68.7281C297.312 68.1829 297.512 67.6774 297.876 67.5991C298.24 67.5208 298.63 67.8993 298.748 68.4445C298.866 68.9897 298.666 69.4951 298.302 69.5735C297.938 69.6518 297.548 69.2733 297.43 68.7281Z" fill="#1B1B1B"/>
<path d="M224.719 234.974L228.531 239.294" stroke="#1B1B1B" stroke-width="0.801404" stroke-linecap="round" stroke-linejoin="round"/>
<path d="M222.16 236.662L224.961 240.088" stroke="#1B1B1B" stroke-width="0.801404" stroke-linecap="round" stroke-linejoin="round"/>
<path d="M220.073 238.064L222.031 240.698" stroke="#1B1B1B" stroke-width="0.801404" stroke-linecap="round" stroke-linejoin="round"/>
<path d="M244.515 144.91C241.641 142.515 240.664 138.953 242.333 136.954C244.003 134.956 247.687 135.278 250.561 137.673C253.435 140.068 254.412 143.63 252.743 145.628C251.073 147.627 247.39 147.305 244.515 144.91Z" fill="#EBC7B5"/>
<path d="M224.055 131.949H231.141L227.942 124.869H220.853L224.055 131.949Z" fill="#EBC7B5"/>
<path d="M221.391 125.995H228.477L227.949 124.869H220.859L221.391 125.995Z" fill="#1B1B1B"/>
<path d="M193.231 170.253C193.231 170.253 193.793 185.146 192.857 196.52C192.108 205.871 191.205 215.348 187.423 223.984C186.135 220.618 184.139 217.821 182.064 214.866C185.595 215.988 185.131 209.764 185.494 207.651C186.136 203.958 186.813 200.273 187.524 196.595C188.966 189.16 188.498 189.638 190.243 182.266C191.149 178.44 193.231 170.253 193.231 170.253Z" fill="#F8EFE5"/>
<path d="M184.862 231.044C183.48 209.392 183.334 192.733 176.803 171.893C183.671 181.262 186.053 194.708 187.73 205.902C189.408 217.096 187.086 217.074 186.903 228.377L185.457 225.688" fill="#EBC7B5"/>
<path d="M188.853 229.564C188.091 229.617 187.337 229.754 186.606 229.971C186.606 229.923 186.639 229.878 186.654 229.829C190.242 219.656 191.32 212.658 201.297 201.307C196.088 211.031 193.096 220.426 190.41 229.455L188.853 229.564Z" fill="#F8EFE5"/>
<path d="M186.034 230.151C184.838 230.236 183.642 230.314 182.447 230.386C182.278 229.225 182.19 228.052 182.184 226.878C182.55 214.772 180.936 202.687 177.406 191.1C183.599 199.48 187.186 209.496 187.719 219.899C187.858 222.723 188.03 226.384 187.611 229.732C187.075 229.831 186.548 229.971 186.034 230.151V230.151Z" fill="#F8EFE5"/>
<path d="M189.476 229.516L188.847 229.56C187.883 229.627 186.932 229.826 186.023 230.151L184.858 230.226C185.633 225.82 186.562 221.437 187.596 217.087C189.174 210.437 191.046 203.863 193.213 197.365C194.299 194.123 195.458 190.902 196.688 187.7C197.437 185.737 200.336 178.795 200.336 178.795C200.336 178.795 195.718 199.269 194.303 207.314C192.996 214.794 191.734 222.271 189.476 229.516Z" fill="#EBC7B5"/>
<path d="M187.633 229.724C187.09 229.827 186.555 229.971 186.034 230.154C185.003 230.229 183.969 230.296 182.933 230.356C179.851 217.198 174.042 204.549 168.264 192.061C178.533 202.544 185.296 215.867 187.633 229.724Z" fill="#EBC7B5"/>
<path d="M174.735 220.903C174.735 227.239 179.978 232.374 186.446 232.374C192.913 232.374 198.156 227.239 198.156 220.903H174.735Z" fill="#F8EFE5"/>
<path d="M174.735 219.443H198.156V220.898H174.735V219.443Z" fill="#1B1B1B"/>
<path d="M198.812 225.838H174.729" stroke="#1B1B1B" stroke-width="0.933635" stroke-linecap="round" stroke-linejoin="round"/>
<path d="M193.699 225.838L201.391 249.169" stroke="#1B1B1B" stroke-width="0.933635" stroke-linecap="round" stroke-linejoin="round"/>
<path d="M179.844 225.838L172.088 249.356" stroke="#1B1B1B" stroke-width="0.933635" stroke-linecap="round" stroke-linejoin="round"/>
<path d="M242.294 246.398V243.433L243.23 241.791L245.892 240.04L249.566 230.892L248.971 227.686L249.772 226.37L256.588 226.744L257.876 227.454L258.303 228.524L259.284 227.548L262.018 224.343L261.786 222.689C261.786 222.689 262.786 222.689 263.475 223.961C264.164 225.233 265.703 227.428 265.703 230.162C265.703 232.896 258.004 242.898 258.004 242.898L255.307 246.387L242.294 246.398Z" fill="#F8EFE5"/>
<path d="M258.831 230.223L258.134 227.96C258.031 227.624 257.827 227.328 257.551 227.111C257.275 226.894 256.939 226.766 256.588 226.744L250.761 226.37C250.48 226.353 250.2 226.404 249.944 226.519C249.687 226.633 249.463 226.808 249.289 227.029C249.124 227.237 249.01 227.48 248.955 227.74C248.9 227.999 248.905 228.268 248.971 228.525L249.573 230.892L246.495 239.072C246.248 239.73 245.783 240.285 245.177 240.643L243.245 241.791C242.959 241.96 242.723 242.201 242.559 242.488C242.395 242.776 242.309 243.102 242.308 243.433V246.399H255.314C255.314 246.399 263.748 235.863 265.613 231.158C265.837 229.848 265.675 228.502 265.149 227.283C264.504 225.861 263.786 224.473 262.999 223.124C262.999 223.124 262.808 222.701 261.793 222.701C261.793 222.701 263.036 225.319 258.501 228.076" stroke="#1B1B1B" stroke-width="0.801404" stroke-linecap="round" stroke-linejoin="round"/>
<path d="M242.3 246.399V248.591C242.3 248.692 242.32 248.792 242.359 248.885C242.398 248.978 242.454 249.063 242.526 249.134C242.598 249.206 242.683 249.262 242.776 249.3C242.87 249.339 242.97 249.358 243.071 249.358L256.313 249.328C256.543 249.328 256.769 249.273 256.972 249.166C257.175 249.059 257.349 248.904 257.478 248.714L267.174 234.509C267.385 234.202 267.525 233.853 267.585 233.486C267.644 233.118 267.622 232.742 267.518 232.385C267.305 231.67 266.511 230.773 265.949 229.92" stroke="#1B1B1B" stroke-width="0.801404" stroke-linecap="round" stroke-linejoin="round"/>
<path d="M249.337 232.072L255.977 232.267" stroke="#1B1B1B" stroke-width="0.801404" stroke-linecap="round" stroke-linejoin="round"/>
<path d="M248.118 235.072L254.656 235.278" stroke="#1B1B1B" stroke-width="0.801404" stroke-linecap="round" stroke-linejoin="round"/>
<path d="M246.803 238.17L252.75 238.301" stroke="#1B1B1B" stroke-width="0.801404" stroke-linecap="round" stroke-linejoin="round"/>
<path d="M242.892 242.349H252" stroke="#1B1B1B" stroke-width="0.801404" stroke-linecap="round" stroke-linejoin="round"/>
<path fill-rule="evenodd" clip-rule="evenodd" d="M184.938 295.865C186.656 295.865 188.317 296.187 189.876 296.842C190.626 297.152 191.355 297.541 192.026 297.985C192.697 298.428 193.334 298.939 193.903 299.494C194.472 300.049 194.995 300.67 195.45 301.325C195.905 301.99 196.303 302.69 196.622 303.422C197.282 304.942 197.623 306.562 197.623 308.238C197.623 309.914 197.293 311.534 196.622 313.054C196.303 313.786 195.905 314.497 195.45 315.151C194.995 315.806 194.472 316.427 193.903 316.982C193.334 317.537 192.697 318.047 192.026 318.491C191.343 318.935 190.626 319.324 189.876 319.634C188.317 320.278 186.656 320.611 184.938 320.611C183.22 320.611 181.559 320.289 180.001 319.634C179.25 319.324 178.522 318.935 177.85 318.491C177.179 318.047 176.542 317.537 175.973 316.982C175.404 316.427 174.881 315.806 174.426 315.151C173.971 314.485 173.573 313.786 173.254 313.054C172.594 311.534 172.253 309.914 172.253 308.238C172.253 306.562 172.583 304.942 173.254 303.422C173.573 302.69 173.971 301.979 174.426 301.325C174.881 300.67 175.404 300.049 175.973 299.494C176.542 298.939 177.179 298.428 177.85 297.985C178.533 297.541 179.25 297.152 180.001 296.842C181.571 296.198 183.232 295.865 184.938 295.865ZM184.938 295.077C177.486 295.077 171.445 300.97 171.445 308.238C171.445 315.506 177.486 321.399 184.938 321.399C192.39 321.399 198.431 315.506 198.431 308.238C198.442 300.97 192.401 295.077 184.938 295.077ZM213.398 310.706L215.468 304.736C216.071 303.005 215.798 302.517 213.875 302.517V301.929H219.518V302.517C217.63 302.517 217.175 302.961 216.424 305.091L212.999 315.101H212.624L209.564 305.946L206.446 315.101H206.06L202.726 305.091C202.009 302.95 201.52 302.517 199.791 302.517V301.929H206.446V302.517C204.672 302.517 204.194 302.927 204.831 304.736L206.845 310.706L209.871 301.929H210.44L213.398 310.706ZM246.699 304.858H241.329V305.413C243.013 305.413 243.274 305.768 243.274 307.843V311.582C243.274 313.658 243.001 314.035 241.329 314.035C240.043 313.857 239.167 313.191 237.973 311.904L236.596 310.439C238.45 310.118 239.44 308.975 239.44 307.687C239.44 306.078 238.03 304.847 235.39 304.847H230.111V305.402C231.795 305.402 232.057 305.757 232.057 307.832V311.571C232.057 313.646 231.784 314.024 230.111 314.024V314.579H236.084V314.024C234.4 314.024 234.139 313.646 234.139 311.571V310.517H234.651L237.984 314.579H246.71C250.999 314.579 252.853 312.359 252.853 309.696C252.842 307.044 250.988 304.858 246.699 304.858ZM234.127 309.618V305.734H235.356C236.71 305.734 237.301 306.644 237.301 307.699C237.301 308.719 236.698 309.629 235.356 309.629H234.127V309.618ZM246.79 313.691H246.585C245.504 313.691 245.356 313.424 245.356 312.082V305.734H246.801C249.918 305.734 250.487 307.954 250.487 309.685C250.476 311.46 249.907 313.691 246.79 313.691ZM217.607 309.709C217.607 312.606 220.304 314.98 223.603 314.98C226.902 314.98 229.598 312.606 229.598 309.709C229.598 306.846 226.902 304.472 223.603 304.472C220.304 304.472 217.607 306.846 217.607 309.709ZM219.883 309.709C219.883 307.812 220.838 305.382 223.603 305.382C226.39 305.382 227.346 307.812 227.357 309.709C227.357 311.64 226.39 314.037 223.603 314.037C220.838 314.037 219.883 311.64 219.883 309.709ZM260.257 314.013V314.601H253.385V314.013C255.399 314.013 255.752 313.514 255.752 310.595V305.912C255.752 302.983 255.388 302.517 253.385 302.517V301.929H259.597C262.692 301.929 264.398 303.482 264.398 305.557C264.398 307.577 262.692 309.153 259.597 309.153H257.891V310.584C257.879 313.514 258.243 314.013 260.257 314.013ZM259.597 302.983H257.891V308.076H259.597C261.281 308.076 262.054 306.933 262.054 305.557C262.054 304.148 261.269 302.983 259.597 302.983ZM284.856 312.37L285.004 311.849V311.827H285.459L285.277 314.579H272.945L269.612 310.517H269.1V311.571C269.1 313.646 269.361 314.024 271.045 314.024V314.579H265.072V314.024C266.745 314.024 267.018 313.646 267.018 311.571V307.832C267.018 305.757 266.756 305.402 265.072 305.402V304.847H270.351C272.99 304.847 274.401 306.078 274.401 307.687C274.401 308.975 273.411 310.118 271.557 310.439L272.934 311.904C274.117 313.18 274.981 313.846 276.244 314.035C277.575 313.957 277.803 313.48 277.803 311.582V307.843C277.803 305.768 277.541 305.413 275.857 305.413V304.858H284.674L284.879 307.61H284.401L284.253 307.055C283.98 306.09 283.65 305.734 281.523 305.734H279.873V309.019C282.206 309.019 282.388 308.808 282.388 307.288H282.956V311.649H282.388C282.388 310.118 282.217 309.918 279.873 309.918V311.261C279.873 313.336 280.146 313.691 281.705 313.691H282.126C284.253 313.691 284.583 313.336 284.856 312.37ZM269.1 305.734V309.618V309.629H270.328C271.671 309.629 272.274 308.719 272.274 307.699C272.274 306.644 271.682 305.734 270.328 305.734H269.1ZM291.09 314.977C289.896 314.977 288.838 314.367 288.394 313.979C288.246 314.123 287.973 314.567 287.916 314.977H287.347V310.938H287.95C288.189 312.869 289.566 314.012 291.341 314.012C292.296 314.012 293.081 313.49 293.081 312.603C293.081 311.837 292.387 311.26 291.159 310.705L289.452 309.917C288.258 309.362 287.347 308.397 287.347 307.11C287.347 305.7 288.701 304.502 290.556 304.502C291.545 304.502 292.387 304.857 292.899 305.268C293.047 305.145 293.195 304.824 293.286 304.48H293.855V307.931H293.229C293.024 306.555 292.239 305.412 290.647 305.412C289.805 305.412 289.031 305.878 289.031 306.61C289.031 307.376 289.657 307.775 291.102 308.419L292.751 309.207C294.196 309.884 294.765 310.96 294.765 311.837C294.742 313.69 293.093 314.977 291.09 314.977ZM297.462 313.979C297.905 314.367 298.963 314.977 300.158 314.977C302.172 314.977 303.821 313.69 303.833 311.837C303.833 310.96 303.264 309.884 301.819 309.207L300.169 308.419C298.724 307.775 298.099 307.376 298.099 306.61C298.099 305.878 298.872 305.412 299.714 305.412C301.307 305.412 302.092 306.555 302.297 307.931H302.922V304.48H302.354C302.263 304.824 302.115 305.145 301.967 305.268C301.455 304.857 300.613 304.502 299.623 304.502C297.769 304.502 296.415 305.7 296.415 307.11C296.415 308.397 297.325 309.362 298.52 309.917L300.226 310.705C301.455 311.26 302.149 311.837 302.149 312.603C302.149 313.49 301.364 314.012 300.408 314.012C298.633 314.012 297.257 312.869 297.018 310.938H296.415V314.977H296.984C297.041 314.567 297.314 314.123 297.462 313.979ZM180.206 317.89C176.452 316.114 173.869 312.352 173.869 308.013C173.869 306.427 174.21 304.917 174.836 303.553L180.206 317.89ZM191.776 304.44C192.208 305.173 192.709 306.116 192.709 307.47C192.709 308.402 192.402 309.511 191.89 311.087L190.729 314.671L186.657 302.865C187.328 302.831 187.942 302.765 187.942 302.765C188.556 302.698 188.477 301.833 187.874 301.866C187.874 301.866 186.042 302.01 184.87 302.01C183.767 302.01 181.912 301.866 181.912 301.866C181.31 301.821 181.241 302.731 181.844 302.765C181.844 302.765 182.424 302.842 183.027 302.865L184.779 307.547L182.322 314.749L178.226 302.865C178.898 302.831 179.512 302.765 179.512 302.765C180.126 302.698 180.047 301.833 179.444 301.866C179.444 301.866 177.612 302.01 176.44 302.01C176.224 302.01 175.974 302.01 175.712 301.999C177.726 299.014 181.184 297.05 185.109 297.05C188.045 297.05 190.707 298.148 192.709 299.935C192.686 299.935 192.661 299.932 192.635 299.929C192.609 299.927 192.584 299.924 192.561 299.924C191.458 299.924 190.673 300.856 190.673 301.866C190.673 302.708 191.13 303.426 191.649 304.241C191.691 304.306 191.734 304.373 191.776 304.44ZM181.935 318.544L185.314 308.979L188.761 318.211C188.784 318.267 188.807 318.322 188.841 318.367C187.68 318.766 186.418 318.988 185.109 318.988C184.006 318.988 182.948 318.833 181.935 318.544ZM195.064 303.885C195.064 303.475 195.03 303.098 194.984 302.754C195.86 304.318 196.361 306.116 196.372 308.013C196.372 312.064 194.12 315.604 190.775 317.501L194.211 307.814C194.848 306.249 195.064 304.995 195.064 303.885Z" fill="white"/>
<path d="M171.61 351.992H174.196V362.83H175.843V351.992H178.429V350.476H171.61V351.992ZM181.453 358.333C181.453 356.703 182.211 355.879 183.447 355.879C184.682 355.879 185.44 356.703 185.44 358.333V362.83H187.087V358.004C187.087 355.582 185.753 354.429 183.957 354.429C182.87 354.429 181.964 354.94 181.453 355.895V350.476H179.806V362.83H181.453V358.333ZM196.936 358.712C196.936 356.192 195.223 354.429 192.884 354.429C190.545 354.429 188.832 356.192 188.832 358.712C188.832 361.232 190.545 362.995 192.884 362.995C194.779 362.995 196.212 362.056 196.722 360.359H194.943C194.614 361.101 193.955 361.545 192.95 361.545C191.567 361.545 190.644 360.705 190.446 359.272H196.903C196.92 359.091 196.936 358.91 196.936 358.712ZM192.884 355.879C194.202 355.879 195.108 356.703 195.306 358.086H190.463C190.661 356.703 191.55 355.879 192.884 355.879ZM203.391 352.799C204.034 352.799 204.478 352.321 204.478 351.695C204.478 351.069 204.034 350.608 203.391 350.608C202.765 350.608 202.304 351.069 202.304 351.695C202.304 352.321 202.765 352.799 203.391 352.799ZM204.215 362.83V354.594H202.568V362.83H204.215ZM212.699 362.83H214.346V350.476H212.699V355.83C212.056 354.957 211.101 354.429 209.997 354.429C207.741 354.429 206.044 356.192 206.044 358.712C206.044 361.232 207.741 362.995 209.997 362.995C211.101 362.995 212.056 362.468 212.699 361.595V362.83ZM210.195 355.945C211.628 355.945 212.699 357.048 212.699 358.712C212.699 360.376 211.628 361.479 210.195 361.479C208.762 361.479 207.691 360.376 207.691 358.712C207.691 357.048 208.762 355.945 210.195 355.945ZM224.282 358.712C224.282 356.192 222.569 354.429 220.23 354.429C217.891 354.429 216.178 356.192 216.178 358.712C216.178 361.232 217.891 362.995 220.23 362.995C222.124 362.995 223.557 362.056 224.068 360.359H222.289C221.96 361.101 221.301 361.545 220.296 361.545C218.912 361.545 217.99 360.705 217.792 359.272H224.249C224.266 359.091 224.282 358.91 224.282 358.712ZM220.23 355.879C221.548 355.879 222.454 356.703 222.651 358.086H217.809C218.006 356.703 218.896 355.879 220.23 355.879ZM231.273 362.83H232.887V357.065C232.887 355.154 231.24 354.429 229.461 354.429C227.649 354.429 225.936 355.237 225.936 357.361H227.649C227.649 356.291 228.39 355.747 229.461 355.747C230.466 355.747 231.24 356.192 231.24 356.999C231.24 358.877 225.689 357.098 225.689 360.656C225.689 362.287 227.023 362.995 228.489 362.995C229.675 362.995 230.729 362.534 231.273 361.446V362.83ZM227.369 360.557C227.369 359.173 229.873 359.519 231.273 358.844V359.437C231.273 360.87 230.087 361.611 228.819 361.611C227.979 361.611 227.369 361.265 227.369 360.557ZM236.821 362.83V350.476H235.174V362.83H236.821ZM248.903 357.872H250.616C250.418 355.813 248.722 354.429 246.548 354.429C244.192 354.429 242.446 356.192 242.446 358.712C242.446 361.232 244.192 362.995 246.548 362.995C248.788 362.995 250.517 361.545 250.649 359.371H248.936C248.771 360.738 247.75 361.479 246.548 361.479C245.147 361.479 244.093 360.376 244.093 358.712C244.093 357.048 245.147 355.945 246.548 355.945C247.734 355.945 248.738 356.62 248.903 357.872ZM256.04 362.995C258.428 362.995 260.207 361.232 260.207 358.712C260.207 356.192 258.428 354.429 256.04 354.429C253.651 354.429 251.872 356.192 251.872 358.712C251.872 361.232 253.651 362.995 256.04 362.995ZM256.04 361.479C254.607 361.479 253.52 360.376 253.52 358.712C253.52 357.048 254.607 355.945 256.04 355.945C257.473 355.945 258.56 357.048 258.56 358.712C258.56 360.376 257.473 361.479 256.04 361.479ZM267.505 362.83H269.153V354.594H267.505V359.058C267.505 360.705 266.764 361.545 265.562 361.545C264.343 361.545 263.602 360.705 263.602 359.058V354.594H261.954V359.387C261.954 361.842 263.289 362.995 265.051 362.995C266.122 362.995 266.995 362.484 267.505 361.512V362.83ZM273.239 358.696C273.239 356.999 274.161 356.143 275.743 356.143C276.072 356.143 276.368 356.192 276.616 356.274V354.479C276.484 354.446 276.286 354.429 276.088 354.429C274.837 354.429 273.832 355.006 273.239 356.077V354.594H271.592V362.83H273.239V358.696ZM284.593 360.508C284.593 357.147 279.569 358.613 279.569 356.785C279.569 356.126 280.162 355.747 281.052 355.747C282.007 355.747 282.715 356.324 282.715 357.114H284.428C284.428 355.599 282.979 354.429 281.052 354.429C279.273 354.429 277.906 355.352 277.906 356.851C277.906 360.162 282.897 358.58 282.897 360.573C282.897 361.315 282.304 361.694 281.299 361.694C280.245 361.694 279.454 361.183 279.454 360.178H277.741C277.741 361.974 279.273 362.995 281.299 362.995C283.21 362.995 284.593 362.056 284.593 360.508ZM294.03 358.712C294.03 356.192 292.317 354.429 289.978 354.429C287.639 354.429 285.926 356.192 285.926 358.712C285.926 361.232 287.639 362.995 289.978 362.995C291.872 362.995 293.305 362.056 293.816 360.359H292.037C291.707 361.101 291.049 361.545 290.044 361.545C288.66 361.545 287.738 360.705 287.54 359.272H293.997C294.014 359.091 294.03 358.91 294.03 358.712ZM289.978 355.879C291.296 355.879 292.202 356.703 292.399 358.086H287.557C287.754 356.703 288.644 355.879 289.978 355.879ZM301.77 360.013V356.044H304.142V354.594H301.77V352.156H300.123V354.594H298.772V356.044H300.123V360.112C300.123 362.352 301.276 362.995 302.857 362.995C303.335 362.995 303.845 362.896 304.142 362.797V361.331C303.862 361.43 303.532 361.479 303.17 361.479C302.214 361.479 301.77 361.035 301.77 360.013ZM309.557 362.995C311.945 362.995 313.724 361.232 313.724 358.712C313.724 356.192 311.945 354.429 309.557 354.429C307.169 354.429 305.39 356.192 305.39 358.712C305.39 361.232 307.169 362.995 309.557 362.995ZM309.557 361.479C308.124 361.479 307.037 360.376 307.037 358.712C307.037 357.048 308.124 355.945 309.557 355.945C310.99 355.945 312.077 357.048 312.077 358.712C312.077 360.376 310.99 361.479 309.557 361.479ZM320.997 362.83V350.476H319.35V362.83H320.997ZM330.931 358.712C330.931 356.192 329.218 354.429 326.879 354.429C324.54 354.429 322.827 356.192 322.827 358.712C322.827 361.232 324.54 362.995 326.879 362.995C328.773 362.995 330.206 362.056 330.717 360.359H328.938C328.608 361.101 327.949 361.545 326.945 361.545C325.561 361.545 324.639 360.705 324.441 359.272H330.898C330.914 359.091 330.931 358.91 330.931 358.712ZM326.879 355.879C328.196 355.879 329.102 356.703 329.3 358.086H324.457C324.655 356.703 325.544 355.879 326.879 355.879ZM337.922 362.83H339.536V357.065C339.536 355.154 337.889 354.429 336.11 354.429C334.298 354.429 332.585 355.237 332.585 357.361H334.298C334.298 356.291 335.039 355.747 336.11 355.747C337.114 355.747 337.889 356.192 337.889 356.999C337.889 358.877 332.338 357.098 332.338 360.656C332.338 362.287 333.672 362.995 335.138 362.995C336.324 362.995 337.378 362.534 337.922 361.446V362.83ZM334.018 360.557C334.018 359.173 336.521 359.519 337.922 358.844V359.437C337.922 360.87 336.736 361.611 335.467 361.611C334.627 361.611 334.018 361.265 334.018 360.557ZM343.469 358.696C343.469 356.999 344.392 356.143 345.973 356.143C346.302 356.143 346.599 356.192 346.846 356.274V354.479C346.714 354.446 346.517 354.429 346.319 354.429C345.067 354.429 344.062 355.006 343.469 356.077V354.594H341.822V362.83H343.469V358.696ZM350.113 358.333C350.113 356.703 350.87 355.879 352.106 355.879C353.341 355.879 354.099 356.703 354.099 358.333V362.83H355.746V358.004C355.746 355.582 354.412 354.429 352.616 354.429C351.529 354.429 350.623 354.94 350.113 355.895V354.594H348.466V362.83H350.113V358.333ZM174.311 381.333C174.311 379.703 175.069 378.879 176.304 378.879C177.54 378.879 178.298 379.703 178.298 381.333V385.83H179.945V381.004C179.945 378.582 178.611 377.429 176.815 377.429C175.728 377.429 174.822 377.94 174.311 378.895V373.476H172.664V385.83H174.311V381.333ZM185.858 385.995C188.246 385.995 190.025 384.232 190.025 381.712C190.025 379.192 188.246 377.429 185.858 377.429C183.469 377.429 181.69 379.192 181.69 381.712C181.69 384.232 183.469 385.995 185.858 385.995ZM185.858 384.479C184.424 384.479 183.337 383.376 183.337 381.712C183.337 380.048 184.424 378.945 185.858 378.945C187.291 378.945 188.378 380.048 188.378 381.712C188.378 383.376 187.291 384.479 185.858 384.479ZM202.989 377.594H201.408L199.712 384.397L197.982 377.594H195.89L194.161 384.397L192.464 377.594H190.883L193.106 385.83H195.182L196.944 379.027L198.69 385.83H200.766L202.989 377.594ZM210.193 383.013V379.044H212.565V377.594H210.193V375.156H208.546V377.594H207.196V379.044H208.546V383.112C208.546 385.352 209.699 385.995 211.281 385.995C211.758 385.995 212.269 385.896 212.565 385.797V384.331C212.285 384.43 211.956 384.479 211.594 384.479C210.638 384.479 210.193 384.035 210.193 383.013ZM217.981 385.995C220.369 385.995 222.148 384.232 222.148 381.712C222.148 379.192 220.369 377.429 217.981 377.429C215.592 377.429 213.813 379.192 213.813 381.712C213.813 384.232 215.592 385.995 217.981 385.995ZM217.981 384.479C216.548 384.479 215.461 383.376 215.461 381.712C215.461 380.048 216.548 378.945 217.981 378.945C219.414 378.945 220.501 380.048 220.501 381.712C220.501 383.376 219.414 384.479 217.981 384.479ZM229.932 381.152C229.932 379.999 230.426 379.406 231.266 379.406C232.123 379.406 232.617 379.999 232.617 381.152V385.83H235.005V381.152C235.005 379.999 235.483 379.406 236.339 379.406C237.179 379.406 237.674 379.999 237.674 381.152V385.83H240.062V380.609C240.062 378.484 238.843 377.429 237.212 377.429C236.092 377.429 235.153 377.973 234.676 378.928C234.198 377.924 233.276 377.429 232.139 377.429C231.184 377.429 230.377 377.874 229.899 378.665V377.594H227.543V385.83H229.932V381.152ZM246.881 385.83H249.187V380.164C249.187 378.187 247.458 377.429 245.564 377.429C243.653 377.429 241.808 378.27 241.808 380.427H244.164C244.164 379.62 244.674 379.175 245.498 379.175C246.239 379.175 246.799 379.521 246.799 380.098C246.799 381.712 241.561 380.147 241.561 383.639C241.561 385.27 242.895 385.995 244.262 385.995C245.399 385.995 246.354 385.583 246.881 384.578V385.83ZM243.949 383.442C243.949 382.486 245.695 382.635 246.832 382.124V382.552C246.832 383.656 245.975 384.232 244.987 384.232C244.411 384.232 243.949 383.969 243.949 383.442ZM253.401 381.284C253.401 380.048 253.945 379.406 254.883 379.406C255.822 379.406 256.366 380.048 256.366 381.284V385.83H258.754V380.74C258.754 378.533 257.47 377.429 255.756 377.429C254.735 377.429 253.862 377.907 253.368 378.764V377.594H251.013V385.83H253.401V381.284ZM265.573 385.83H267.879V380.164C267.879 378.187 266.15 377.429 264.255 377.429C262.345 377.429 260.5 378.27 260.5 380.427H262.855C262.855 379.62 263.366 379.175 264.189 379.175C264.931 379.175 265.491 379.521 265.491 380.098C265.491 381.712 260.253 380.147 260.253 383.639C260.253 385.27 261.587 385.995 262.954 385.995C264.091 385.995 265.046 385.583 265.573 384.578V385.83ZM262.641 383.442C262.641 382.486 264.387 382.635 265.524 382.124V382.552C265.524 383.656 264.667 384.232 263.679 384.232C263.102 384.232 262.641 383.969 262.641 383.442ZM277.858 385.912V377.594H275.519V378.648C274.909 377.874 274.053 377.429 273.048 377.429C270.808 377.429 269.21 379.143 269.21 381.712C269.21 384.265 270.808 385.995 273.048 385.995C274.02 385.995 274.86 385.567 275.469 384.842V385.945C275.469 387.247 274.778 388.136 273.575 388.136C272.57 388.136 271.846 387.477 271.697 386.489H269.375C269.671 388.68 271.318 390.113 273.625 390.113C275.98 390.113 277.858 388.433 277.858 385.912ZM273.509 383.87C272.389 383.87 271.566 383.013 271.566 381.712C271.566 380.411 272.389 379.554 273.509 379.554C274.646 379.554 275.469 380.411 275.469 381.712C275.469 383.013 274.646 383.87 273.509 383.87ZM287.679 381.712C287.679 379.192 285.933 377.429 283.511 377.429C281.09 377.429 279.344 379.192 279.344 381.712C279.344 384.232 281.09 385.995 283.511 385.995C285.538 385.995 286.971 385.039 287.481 383.228H285.06C284.829 383.771 284.335 384.035 283.577 384.035C282.49 384.035 281.831 383.458 281.634 382.371H287.646C287.662 382.157 287.679 381.943 287.679 381.712ZM283.511 379.39C284.516 379.39 285.175 379.933 285.373 380.971H281.65C281.848 379.933 282.507 379.39 283.511 379.39ZM297.889 385.83H300.195V380.164C300.195 378.187 298.466 377.429 296.572 377.429C294.661 377.429 292.816 378.27 292.816 380.427H295.171C295.171 379.62 295.682 379.175 296.506 379.175C297.247 379.175 297.807 379.521 297.807 380.098C297.807 381.712 292.569 380.147 292.569 383.639C292.569 385.27 293.903 385.995 295.27 385.995C296.407 385.995 297.362 385.583 297.889 384.578V385.83ZM294.957 383.442C294.957 382.486 296.703 382.635 297.84 382.124V382.552C297.84 383.656 296.983 384.232 295.995 384.232C295.419 384.232 294.957 383.969 294.957 383.442ZM304.409 385.83V373.476H302.021V385.83H304.409ZM308.768 385.83V373.476H306.38V385.83H308.768ZM177.359 408.83H179.665V403.164C179.665 401.187 177.935 400.429 176.041 400.429C174.13 400.429 172.285 401.27 172.285 403.427H174.641C174.641 402.62 175.151 402.175 175.975 402.175C176.716 402.175 177.276 402.521 177.276 403.098C177.276 404.712 172.038 403.147 172.038 406.639C172.038 408.27 173.373 408.995 174.74 408.995C175.876 408.995 176.832 408.583 177.359 407.578V408.83ZM174.427 406.442C174.427 405.486 176.173 405.635 177.309 405.124V405.552C177.309 406.656 176.453 407.232 175.464 407.232C174.888 407.232 174.427 406.969 174.427 406.442ZM188.276 406.392C188.276 402.983 183.467 404.317 183.467 402.851C183.467 402.39 183.911 402.11 184.554 402.11C185.278 402.11 185.822 402.587 185.822 403.213H188.128C188.128 401.648 186.58 400.429 184.537 400.429C182.643 400.429 181.193 401.385 181.193 402.966C181.193 406.359 185.937 404.91 185.937 406.524C185.937 407.051 185.493 407.315 184.768 407.315C183.961 407.315 183.351 406.919 183.351 406.112H181.045C181.045 407.941 182.659 408.995 184.784 408.995C186.777 408.995 188.276 408.023 188.276 406.392ZM194.616 408.995C196.84 408.995 198.438 407.265 198.438 404.712C198.438 402.143 196.84 400.429 194.616 400.429C193.612 400.429 192.755 400.874 192.146 401.632V400.594H189.79V412.948H192.179V407.842C192.788 408.567 193.628 408.995 194.616 408.995ZM194.139 406.87C193.019 406.87 192.179 406.013 192.179 404.712C192.179 403.411 193.019 402.554 194.139 402.554C195.259 402.554 196.099 403.411 196.099 404.712C196.099 406.013 195.259 406.87 194.139 406.87ZM207.765 404.712C207.765 402.192 206.019 400.429 203.597 400.429C201.176 400.429 199.43 402.192 199.43 404.712C199.43 407.232 201.176 408.995 203.597 408.995C205.623 408.995 207.056 408.039 207.567 406.228H205.146C204.915 406.771 204.421 407.035 203.663 407.035C202.576 407.035 201.917 406.458 201.72 405.371H207.732C207.748 405.157 207.765 404.943 207.765 404.712ZM203.597 402.39C204.602 402.39 205.261 402.933 205.459 403.971H201.736C201.934 402.933 202.593 402.39 203.597 402.39ZM214.739 403.954H217.177C216.963 401.846 215.299 400.429 212.977 400.429C210.555 400.429 208.76 402.192 208.76 404.712C208.76 407.232 210.555 408.995 212.977 408.995C215.365 408.995 217.078 407.512 217.193 405.289H214.788C214.64 406.343 213.883 406.87 212.993 406.87C211.873 406.87 211.099 406.013 211.099 404.712C211.099 403.411 211.889 402.554 212.993 402.554C213.883 402.554 214.624 403.016 214.739 403.954ZM221.563 405.882V402.521H223.589V400.594H221.563V398.156H219.174V400.594H217.988V402.521H219.174V406.013C219.174 408.319 220.459 408.995 222.205 408.995C222.699 408.995 223.259 408.896 223.589 408.797V406.821C223.309 406.919 222.963 406.969 222.683 406.969C221.909 406.969 221.563 406.639 221.563 405.882ZM231.885 406.392C231.885 402.983 227.075 404.317 227.075 402.851C227.075 402.39 227.52 402.11 228.162 402.11C228.887 402.11 229.43 402.587 229.43 403.213H231.737C231.737 401.648 230.188 400.429 228.146 400.429C226.251 400.429 224.802 401.385 224.802 402.966C224.802 406.359 229.546 404.91 229.546 406.524C229.546 407.051 229.101 407.315 228.376 407.315C227.569 407.315 226.96 406.919 226.96 406.112H224.654C224.654 407.941 226.268 408.995 228.393 408.995C230.386 408.995 231.885 408.023 231.885 406.392Z" fill="white"/>
</g>
<rect x="137.807" y="0.580116" width="265.693" height="546.635" rx="36.7131" stroke="#1B1B1B" stroke-width="1.16023"/>
<path d="M-5.00002 429.887L515 429.887" stroke="#1B1B1B" stroke-width="1.4" stroke-linecap="round" stroke-linejoin="round"/>
</g>
<defs>
<clipPath id="clip0_2708_4636">
<rect width="569" height="430" fill="white"/>
</clipPath>
<clipPath id="clip1_2708_4636">
<rect x="137.227" width="266.853" height="547.795" rx="37.2932" fill="white"/>
</clipPath>
</defs>
</svg>