<svg width="509" height="301" viewBox="0 0 509 301" fill="none" xmlns="http://www.w3.org/2000/svg">
<g clip-path="url(#clip0_2708_4986)">
<path d="M305.033 81.0779C322.199 33.0912 372.018 -7.44499 437.773 11.9767C503.529 31.3983 442.551 322.404 328.122 359.57C213.693 396.735 153.573 334.548 99.4952 323.412C0.260281 302.978 -25.0019 197.456 46.2459 161.185C117.494 124.915 184.777 160.639 229.625 160.749C274.473 160.858 287.866 129.064 305.033 81.0779Z" stroke="#1B1B1B" stroke-width="1.16023"/>
<path d="M305.048 81.1521C322.214 33.1655 372.034 -7.37077 437.789 12.0509C503.544 31.4725 442.566 322.479 328.138 359.644C213.709 396.809 153.588 334.622 99.5108 323.486C0.275906 303.052 -24.9863 197.53 46.2615 161.259C117.509 124.989 184.793 160.713 229.641 160.823C274.488 160.933 287.882 129.139 305.048 81.1521Z" fill="#F6C7B2"/>
<path d="M437.773 11.9753C449.165 15.3403 456.754 26.8582 460.919 43.796M46.245 161.184C29.3363 169.792 17.8632 182.3 11.5245 196.645" stroke="#F6C7B2" stroke-width="1.65747"/>
</g>
<defs>
<clipPath id="clip0_2708_4986">
<rect width="509" height="301" fill="white"/>
</clipPath>
</defs>
</svg>
