<svg width="24" height="25" viewBox="0 0 24 25" fill="none" xmlns="http://www.w3.org/2000/svg">
<path fill-rule="evenodd" clip-rule="evenodd" d="M2.83333 11.4267C2.83333 7.01419 6.41084 3.43685 10.8243 3.43685C15.2377 3.43685 18.8152 7.01419 18.8152 11.4267C18.8152 13.5767 17.9659 15.5284 16.5843 16.9647C16.5447 16.9966 16.5064 17.0309 16.4696 17.0677C16.4327 17.1047 16.3982 17.1431 16.3662 17.1829C14.9295 18.5661 12.9763 19.4166 10.8243 19.4166C6.41084 19.4166 2.83333 15.8393 2.83333 11.4267ZM17.4131 20.0145C15.5881 21.4165 13.3035 22.25 10.8243 22.25C4.84633 22.25 0 17.4044 0 11.4267C0 5.44909 4.84633 0.603516 10.8243 0.603516C16.8022 0.603516 21.6485 5.44909 21.6485 11.4267C21.6485 13.9039 20.8163 16.1866 19.4161 18.0106L23.5884 22.1824C24.1417 22.7356 24.1417 23.6326 23.5885 24.1859C23.0353 24.7392 22.1383 24.7392 21.585 24.186L17.4131 20.0145Z" fill="white"/>
</svg>
