<svg width="49" height="53" viewBox="0 0 49 53" fill="none" xmlns="http://www.w3.org/2000/svg">
<path fill-rule="evenodd" clip-rule="evenodd" d="M26.1326 3.97901C32.0739 3.64726 36.1155 9.20956 39.8567 13.7326C43.6439 18.3114 47.7759 23.2347 46.8748 29.0562C45.9088 35.297 41.4409 41.0653 35.3161 43.0668C29.7619 44.8818 24.7268 40.4737 19.4342 38.0234C14.0659 35.538 6.44994 34.7746 5.16304 29.1069C3.87812 23.448 10.4949 19.6548 14.2435 15.1628C17.9011 10.7799 20.355 4.30162 26.1326 3.97901Z" fill="#3C8AAC"/>
<path opacity="0.7" fill-rule="evenodd" clip-rule="evenodd" d="M17.536 44.8525C18.8399 46.0035 19.7897 47.7712 19.0047 49.3043C18.2195 50.8381 16.2338 51.0541 14.5149 50.7533C12.8995 50.4705 11.3284 49.5251 11.0975 47.9203C10.8767 46.3853 12.2144 45.2245 13.623 44.5533C14.9221 43.9343 16.4546 43.8978 17.536 44.8525Z" fill="#3C8AAC"/>
<path d="M6.00001 10.8832C3.23858 10.8832 1 8.67099 1 5.94209C1 3.21319 3.23858 1.00098 6.00001 1.00098C8.76143 1.00098 11 3.21319 11 5.94209C11 8.67099 8.76143 10.8832 6.00001 10.8832Z" stroke="#1B1B1B" stroke-linecap="round" stroke-linejoin="round"/>
<path d="M47 10.8845C45.8954 10.8845 45 9.99965 45 8.90809C45 7.81653 45.8954 6.93164 47 6.93164C48.1046 6.93164 49 7.81653 49 8.90809C49 9.99965 48.1046 10.8845 47 10.8845Z" fill="#1B1B1B"/>
</svg>
