<svg width="58" height="46" viewBox="0 0 58 46" fill="none" xmlns="http://www.w3.org/2000/svg">
<path fill-rule="evenodd" clip-rule="evenodd" d="M28.2727 0.0551394C37.7925 -0.475724 48.35 2.78052 51.2983 11.828C54.248 20.8797 47.4272 29.4082 39.6206 34.878C32.2841 40.0185 22.5346 42.3891 15.3869 36.9901C8.54997 31.8259 9.18637 22.0997 12.0055 14.0192C14.6054 6.56706 20.377 0.495436 28.2727 0.0551394Z" fill="#3C8AAC"/>
<path opacity="0.7" fill-rule="evenodd" clip-rule="evenodd" d="M8.43707 7.81214C7.83051 9.41629 6.51377 10.9215 4.78285 10.7622C3.05113 10.6029 2.12086 8.87328 1.77494 7.19928C1.44985 5.62607 1.76502 3.85312 3.19157 3.06157C4.5561 2.30444 6.13882 3.10182 7.28642 4.14114C8.34476 5.09963 8.94015 6.48167 8.43707 7.81214Z" fill="#3C8AAC"/>
<path d="M27 45.0003C24.2386 45.0003 22 42.8104 22 40.109C22 37.4077 24.2386 35.2178 27 35.2178C29.7614 35.2178 32 37.4077 32 40.109C32 42.8104 29.7614 45.0003 27 45.0003Z" stroke="#1B1B1B" stroke-linecap="round" stroke-linejoin="round"/>
<path d="M56 5.87103C54.8954 5.87103 54 4.99507 54 3.91452C54 2.83397 54.8954 1.95801 56 1.95801C57.1046 1.95801 58 2.83397 58 3.91452C58 4.99507 57.1046 5.87103 56 5.87103Z" fill="#1B1B1B"/>
</svg>
